<?xml version="1.0" encoding="UTF-8"?>
<svg id="Calque_1" data-name="Calque 1" xmlns="http://www.w3.org/2000/svg" xmlns:xlink="http://www.w3.org/1999/xlink" viewBox="0 0 500 500">
  <defs>
    <style>
      .cls-1 {
        fill: none;
      }

      .cls-2 {
        fill: #00cb5e;
      }

      .cls-3 {
        fill: #fff;
      }

      .cls-4 {
        fill: #1a1a1a;
      }

      .cls-5 {
        clip-path: url(#clippath);
      }
    </style>
    <clipPath id="clippath">
      <rect class="cls-1" width="500" height="500"/>
    </clipPath>
  </defs>
  <g class="cls-5">
    <path class="cls-2" d="M101.42,26.48c6.42-1.12,12.95-1.35,19.46-1.22,87.94.02,175.88.03,263.84,0,23.47.17,46.62,10.03,63.18,26.64,16.26,16.15,26.17,38.61,26.75,61.55v265.65c1.6,29.54-12.3,59.29-35.97,77.02-14.94,11.4-33.46,18.11-52.28,18.59h-245.73c-17.81-.26-36.2,1.62-53.27-4.7-35.64-11.5-61.75-46.81-62.18-84.28-.02-90.18.02-180.37,0-270.53.21-27.21,13.51-53.93,35.06-70.54,11.89-9.4,26.19-15.63,41.13-18.17M168.52,86.79c-38.2,18.83-69.15,51.7-85.94,90.81-16.77,38.63-19.44,83.11-7.64,123.51,11.53,40.28,37.65,76.1,72.31,99.63,30.33,20.78,67.12,32.16,103.94,31.5,37.17.3,73.94-12.11,104.3-33.35,17.73,3.36,35.49,6.65,53.24,9.95-3.27-17.86-6.61-35.69-9.85-53.55,21.57-30.45,33.46-67.65,33.35-104.99.33-42.78-15.22-85.45-42.95-118.04-26.62-31.67-64.3-53.9-105.01-61.47-38.94-7.32-80.35-2.01-115.75,16"/>
    <path class="cls-4" d="M168.51,86.8c35.39-18.01,76.81-23.32,115.75-16,40.7,7.57,78.39,29.8,105.01,61.47,27.72,32.59,43.28,75.26,42.95,118.04.12,37.34-11.77,74.55-33.35,104.99,3.23,17.86,6.58,35.69,9.85,53.55-17.75-3.3-35.51-6.58-53.24-9.95-30.36,21.24-67.13,33.65-104.3,33.35-36.81.66-73.61-10.72-103.94-31.5-34.65-23.54-60.78-59.36-72.31-99.63-11.81-40.41-9.14-84.89,7.64-123.51,16.79-39.1,47.75-71.97,85.94-90.81M243.34,155.26c-27.59,1.68-53.95,16.34-70.08,38.76-14.33,19.35-20.55,44.35-17.42,68.18,2.99,24.99,16.67,48.31,36.7,63.5,19.76,15.22,45.72,21.79,70.39,18.39,20.14-2.72,39.45-12.09,53.75-26.57,17.93-17.33,28.24-42.17,28.14-67.08.35-25.43-10.18-50.86-28.62-68.43-18.9-18.93-46.25-28.68-72.86-26.75"/>
    <path class="cls-4" d="M242.09,225.24c14.79-5.39,32.19,6.12,33.66,21.62,2.14,13.92-9.2,27.91-23.17,29.01-12.78,1.62-25.6-7.98-28.01-20.57-3.04-12.53,5.28-26.32,17.51-30.07"/>
    <path class="cls-3" d="M243.34,155.26c26.62-1.93,53.96,7.82,72.87,26.75,18.44,17.57,28.96,43,28.61,68.43.1,24.9-10.21,49.74-28.14,67.08-14.3,14.48-33.61,23.85-53.75,26.57-24.67,3.4-50.63-3.17-70.39-18.39-20.02-15.19-33.71-38.51-36.7-63.5-3.13-23.83,3.09-48.83,17.42-68.18,16.13-22.41,42.48-37.08,70.08-38.76M242.09,225.24c-12.24,3.74-20.55,17.53-17.51,30.07,2.41,12.58,15.22,22.18,28.01,20.57,13.97-1.11,25.32-15.09,23.17-29.01-1.47-15.5-18.87-27.01-33.66-21.62"/>
  </g>
</svg>