<?xml version="1.0" encoding="UTF-8"?>
<svg id="Calque_1" data-name="Calque 1" xmlns="http://www.w3.org/2000/svg" viewBox="0 0 325.79 450.58">
  <defs>
    <style>
      .cls-1 {
        fill: #1d1d1b;
      }
    </style>
  </defs>
  <g>
    <path class="cls-1" d="M251.31,212.84c-.42-.54-1.24-.24-1.45.47-.73,3.31-1.5,5.13-3.24,7.76-.24.4-.38.95-.23,1.42.42,1,1.46.33,1.86-.45,1.55-2.34,2.7-5.11,3.29-8.01.13-.41.05-.92-.22-1.19h-.01Z"/>
    <path class="cls-1" d="M244.55,225.86c-.83-.05-.97,1.52-.14,1.59.83.05.97-1.52.14-1.59Z"/>
  </g>
  <g>
    <path class="cls-1" d="M226.48,275.89c-.64.63-.03,1.54,1.02,1.59,4.79.03,7.52.49,11.59,1.88.61.19,1.42.22,2.02-.09,1.29-.74.09-1.82-1.09-2.07-3.63-1.25-7.77-1.91-11.95-1.87-.6-.05-1.31.17-1.6.56Z"/>
    <path class="cls-1" d="M246.28,280.6c.13,1,2.37.76,2.25-.24-.13-1-2.37-.76-2.25.24Z"/>
  </g>
  <path class="cls-1" d="M273.14,224.15c-.18.23-.27.46-.44.54-.4.19-.82.37-1.25.44-2.8.4-4.25,2.1-4.56,4.62-.08.59-.14,1.18-.23,1.77-.04.27-.09.58-.26.78-.15.19-.49.36-.73.36-.19,0-.45-.26-.55-.45-.13-.24-.14-.54-.19-.81-.17-1.04-.29-2.07-.51-3.1-.41-1.96-1.7-3.06-3.83-3.31-.45-.05-.91-.09-1.33-.22-.6-.19-.68-.72-.13-1.01.41-.23.9-.37,1.37-.49,2.32-.55,3.57-1.93,3.93-4.1.17-1.04.47-2.05.77-3.06.06-.23.38-.59.52-.56.28.04.67.27.76.5.2.51.24,1.09.38,1.63.24,1.02.46,2.05.79,3.05.52,1.6,1.79,2.43,3.56,2.67.41.05.83.09,1.22.22.26.09.44.33.7.55h0Z"/>
  <path class="cls-1" d="M309.92,167.81c-.35.44-.51.87-.83,1.02-.76.36-1.56.72-2.38.83-5.32.76-8.08,3.99-8.65,8.78-.14,1.11-.26,2.24-.44,3.35-.09.51-.17,1.1-.49,1.5-.31.36-.92.68-1.39.68-.36,0-.84-.47-1.04-.84-.24-.46-.27-1.01-.36-1.54-.33-1.96-.58-3.94-.97-5.89-.77-3.71-3.22-5.81-7.26-6.31-.86-.1-1.73-.17-2.53-.42-1.15-.36-1.29-1.36-.26-1.92.78-.44,1.7-.72,2.6-.92,4.4-1.05,6.8-3.66,7.47-7.78.32-1.96.91-3.88,1.47-5.8.13-.44.73-1.11,1-1.06.54.09,1.25.5,1.43.95.4.97.47,2.06.73,3.08.47,1.93.87,3.89,1.5,5.78,1,3.05,3.4,4.63,6.77,5.07.78.1,1.59.15,2.32.41.47.17.83.64,1.33,1.04h-.03Z"/>
  <path class="cls-1" d="M43.08,211.17c-.35.44-.51.87-.83,1.02-.76.36-1.56.72-2.38.83-5.32.76-8.08,3.99-8.65,8.78-.14,1.11-.26,2.24-.44,3.35-.09.51-.17,1.1-.49,1.5-.31.36-.92.68-1.39.68-.36,0-.84-.47-1.04-.84-.24-.46-.27-1.01-.36-1.54-.33-1.96-.58-3.94-.97-5.89-.77-3.71-3.22-5.81-7.26-6.31-.86-.1-1.73-.17-2.53-.42-1.15-.36-1.29-1.36-.26-1.92.78-.44,1.7-.72,2.6-.92,4.4-1.05,6.8-3.66,7.47-7.78.32-1.96.91-3.88,1.47-5.8.13-.44.73-1.11,1-1.06.54.09,1.25.5,1.43.95.4.97.47,2.06.73,3.08.47,1.93.87,3.89,1.5,5.78,1,3.05,3.4,4.63,6.77,5.07.78.1,1.59.15,2.32.41.47.17.83.64,1.33,1.04h-.03Z"/>
  <path class="cls-1" d="M75.76,123.5c-.29.2-.49.44-.74.52-.45.17-.93.27-1.41.38-2.15.56-3.22,1.93-3.51,3.92-.08.55-.13,1.11-.2,1.66-.04.23-.09.49-.23.69-.33.47-.92.44-1.14-.09-.13-.32-.13-.68-.17-1.02-.12-1.22-.29-2.42-.91-3.53-.65-1.19-1.73-1.8-3.12-1.97-.19-.03-.38,0-.56-.04-.37-.05-.81-.12-.84-.55-.04-.44.36-.58.72-.7.36-.12.72-.22,1.07-.31,1.57-.45,2.6-1.37,3.01-2.85.24-.91.45-1.83.68-2.75.06-.27.1-.56.24-.81.12-.19.36-.42.55-.42s.49.23.55.41c.18.52.27,1.09.4,1.63.18.78.28,1.59.54,2.34.51,1.54,1.61,2.47,3.42,2.62.37.04.76.12,1.09.26.2.09.33.33.58.59v.03Z"/>
  <path class="cls-1" d="M256.44,295.07c-.79-.35-.92-.78-1-1.29-.13-.86-.24-1.73-.44-2.59-.45-1.98-1.65-2.94-3.81-3.15-.44-.04-1.02.08-1.07-.51-.06-.6.52-.68,1-.79.12-.03.22-.05.33-.08,2.01-.41,3.12-1.59,3.51-3.42.18-.82.38-1.64.63-2.44.1-.33.36-.63.55-.95.74.26.79.76.91,1.23.23,1.02.46,2.05.73,3.06.4,1.54,1.48,2.38,3.19,2.56.29.03.63.03.88.14.24.1.55.35.56.55.01.2-.24.49-.46.61-.24.14-.58.17-.86.23-2.38.52-3.48,1.6-3.88,3.83-.09.49-.08.99-.19,1.45-.13.49-.36.95-.58,1.51v.05Z"/>
  <path class="cls-1" d="M55.05,263.74c.28-.14.55-.32.84-.4,1.23-.33,1.89-1.09,2.09-2.23.08-.45.2-.88.37-1.32.08-.2.26-.38.54-.77.2.49.36.78.45,1.1.09.33.12.69.18,1.04.23,1.27.95,2.1,2.39,2.29.2.03.41.14.63.22,0,.58-.46.61-.84.7-1.01.24-1.82.72-2.15,1.68-.15.42-.17.9-.28,1.33-.08.31-.2.61-.32.92-.09,0-.19.01-.28.03-.12-.22-.29-.42-.36-.65-.14-.54-.19-1.1-.33-1.64-.26-.97-.9-1.59-2-1.78-.28-.05-.56-.14-.84-.22-.03-.09-.05-.18-.09-.27v-.04Z"/>
  <path class="cls-1" d="M82.99,104.97c-.09-.27-.2-.5-.26-.76-.09-.45-.12-.9-.23-1.34-.23-.84-.78-1.41-1.75-1.56-.27-.04-.52-.17-.79-.26,0-.08-.03-.15-.04-.24.28-.13.54-.28.83-.37,1.01-.29,1.55-.92,1.75-1.87.13-.59.33-1.16.51-1.75.08,0,.17,0,.24-.01.13.18.31.35.37.54.15.54.24,1.09.38,1.63.22.82.76,1.33,1.69,1.5.31.05.6.2.9.31,0,.08,0,.15.01.23-.24.12-.47.29-.73.35-1.5.31-2.09,1.27-2.21,2.56-.04.38.06.86-.67,1.04v.03Z"/>
  <g>
    <path class="cls-1" d="M226.85,282.6c-12.93.18-18.03,4.81-22.55,8.91-4.16,3.78-7.78,7.04-16.68,6.44-10.63-.73-13.12-12.58-13.32-22.4-.08-3.22.09-6.21.28-8.42,6.04,4.38,12.87,6.87,20.36,7.36.92.06,1.8.09,2.69.09,20.37,0,29.75-15.79,33.39-21.9,5.21-8.77,6.26-27.02-3.97-35.63-2.84-2.41-5.41-4.26-8.01-5.8,5.54-1.84,11.02-4.56,15.93-7.92,12.5-8.52,16.21-27.94,11.06-38.94-4.75-10.15-11.95-25.45-37.32-25.04-5.48.09-10.61,1.36-15.31,3.72.59-11.06-2.29-20.05-8.59-26.75-11.04-11.75-28.13-12.14-31.48-12.11-27.12.31-39.47,19.48-39.47,37.18,0,.54.03,1.04.06,1.51-2.87-.9-5.96-1.47-9.24-1.7-26.9-1.73-37.25,15.98-41.05,26.72-3.9,11.08-.12,30.73,20.53,39.66,4.66,2.02,9.79,3.46,15.25,4.33-13.94,11.36-18.1,26.16-11.06,39.85,6.97,13.55,23.62,19.99,37.56,20.53-1.56,1.7-3.05,3.43-4.42,5.17-3.3,4.18-5.55,7.99-6.72,11.29-2.73,7.78-2.65,19.02-2.24,26.06-3.35-9.56-11.89-29.15-25.79-30.55-9.35-.93-17.44,1.18-22.69,5.93-.08.05-.15.12-.2.17-.14.12-.29.26-.4.37-.28.27-.55.51-.78.78-3.33,3.6-5.08,8.19-5.08,13.27,0,.63.03,1.27.09,1.88.22,2.55.88,5.12,1.96,7.64.59,1.41,1.34,2.88,2.27,4.38v.13l.15.12c6.39,10.28,18.95,19.35,33.64,24.28,3.71,1.24,7.17,1.78,10.33,1.78,7.69,0,13.65-3.15,17.16-6.89,4.44-4.71,5.85-10.94,3.7-16.27-6.17-15.25,2.92-32.94,7.14-39.88l.13-.13v-.09c2.76-4.52,5.29-8.05,9.18-11.62.01-.01,1.07-1.01,1.07-1.01.73-.68,1.92-1.64,2.78-2.32.61-.44.95-.72,1.04-.81.08-.06.17-.12.24-.18.1-.09.22-.17.35-.24.09-.06.19-.13.28-.2.88-.67,1.57-1.23,2.2-1.79.06-.05,1.48-1.38,2.14-2.09,3.1-3.25,5.46-6.94,7.08-10.99.68,1.36,1.83,3.47,3.56,5.91l-.06.22c-.77,2.59-1.55,5.77-2.39,9.76-1.56,7.29-3.4,28.96,6.58,41.45,4.7,5.87,11.39,8.89,19.89,9,8.02.08,13.92-.86,18.21-2.25-1.84,2.05-2.93,5.05-3.16,8.82-.4,6.8,2.35,15.66,7.65,18.72,3.29,1.89,7.04,2.87,10.87,2.87,2.38,0,4.79-.37,7.12-1.14,6.5-2.12,11.67-6.87,14.55-13.36,3.66-8.28,6.48-28.76-.99-40.06-3.47-5.26-8.64-7.87-15.51-7.79h.01ZM208.72,140.56h1.01c23.78,0,30.62,14.63,35.17,24.34,4.95,10.57,1.38,29.22-10.65,37.41h0c-6.42,4.4-12.55,6.83-16.65,8.11-.17-.09-.35-.18-.52-.28-.19-.1-.37-.2-.56-.31-.22-.12-.45-.23-.68-.35-.18-.09-.37-.18-.55-.27-.24-.12-.49-.23-.73-.35-.18-.08-.35-.17-.52-.24-.27-.13-.55-.24-.83-.36-.15-.06-.31-.13-.46-.19-.33-.14-.68-.27-1.01-.4-.1-.04-.2-.08-.31-.13-.45-.17-.91-.33-1.37-.5-.08-.03-.14-.05-.22-.08-.4-.13-.78-.27-1.19-.4-.15-.05-.31-.09-.46-.14-.32-.1-.65-.2-.99-.29-.19-.05-.4-.12-.59-.17-.29-.09-.6-.17-.91-.24-.22-.05-.45-.12-.67-.17-.29-.08-.58-.14-.88-.22-.24-.06-.49-.12-.74-.17-.28-.06-.58-.13-.87-.19-.26-.05-.52-.1-.78-.17-.29-.06-.59-.12-.88-.18-.27-.05-.55-.1-.83-.15-.29-.05-.6-.12-.9-.17-.29-.05-.59-.1-.88-.15-.31-.05-.6-.1-.91-.15s-.63-.09-.93-.14c-.31-.05-.61-.09-.93-.14s-.65-.09-.99-.13c-.2-.03-.4-.05-.6-.08.88-3.14,1.33-6.4,1.33-9.73,0-5.53-1.24-10.85-3.65-15.83,10.21-7.91,17.97-6.26,18.03-6.23.33.08.67-.13.74-.46s-.13-.67-.46-.74c-.35-.08-8.28-1.82-18.89,6.31-2.65-5.08-6.54-9.66-11.3-13.27-.99-.74-2-1.43-3.01-2.07.04-.06.08-.14.12-.2.06-.12.13-.24.2-.36l.31-.54c.08-.14.17-.28.24-.42.1-.18.22-.37.33-.55.09-.15.19-.31.29-.47.12-.18.23-.37.36-.56.1-.17.22-.33.33-.51.13-.19.26-.38.38-.58.12-.18.24-.36.37-.54.14-.19.28-.38.42-.58.14-.19.27-.37.41-.56s.29-.4.45-.59c.14-.19.29-.38.45-.56.17-.2.33-.4.5-.6.15-.19.32-.38.47-.58.18-.2.36-.41.54-.61.17-.19.33-.38.51-.56.19-.2.38-.41.59-.61.18-.19.36-.37.54-.56.2-.2.42-.41.64-.61.19-.18.37-.36.58-.54.22-.2.46-.41.69-.61.19-.18.4-.35.6-.52.24-.2.5-.41.76-.61.2-.17.4-.33.61-.49.28-.2.56-.41.84-.61.2-.14.4-.29.6-.44.33-.23.67-.44,1.01-.65.18-.12.35-.23.52-.35.52-.32,1.06-.64,1.61-.93,4.77-2.6,10.06-3.97,15.7-4.06l.03.04ZM153.35,105.43c8.91-.13,22.28,2.91,30.57,11.72,6.19,6.58,8.96,15.51,8.23,26.55-.29.17-.56.33-.86.5-.22.13-.44.26-.64.38-.35.22-.69.45-1.02.67-.18.12-.37.23-.54.36-.41.29-.82.59-1.22.88-.09.06-.18.13-.27.19-.47.37-.95.74-1.39,1.13-.15.13-.28.26-.44.38-.29.26-.59.51-.88.78-.18.17-.35.33-.51.5-.24.23-.49.46-.72.69-.18.18-.35.36-.51.54-.22.22-.44.45-.64.67-.17.18-.33.37-.5.55-.19.22-.38.44-.58.65-.17.19-.32.37-.47.56-.18.22-.35.42-.52.63-.15.19-.29.38-.45.56-.15.2-.32.41-.47.61-.14.19-.28.38-.42.56-.14.2-.28.4-.42.59-.13.19-.26.37-.38.56s-.26.38-.38.56-.24.37-.36.55-.23.36-.33.52c-.12.18-.23.36-.33.54-.1.17-.19.32-.28.47-.1.18-.22.36-.32.54-.08.14-.15.27-.23.4-.1.19-.2.37-.31.55-.01.04-.04.08-.06.1-6.76-3.98-14.56-6.08-22.61-6.08-3.29-10.3,2.44-16.36,2.69-16.61.24-.24.23-.63,0-.87-.24-.24-.63-.23-.87,0-.27.27-6.37,6.68-3.07,17.52-6.33.17-12.61,1.64-18.21,4.33-.09-.18-.2-.41-.33-.67-.03-.04-.05-.09-.06-.13-.1-.19-.22-.4-.35-.63-.05-.09-.1-.17-.15-.26-.12-.2-.24-.42-.38-.65-.06-.12-.13-.22-.2-.33-.14-.23-.31-.46-.46-.7-.08-.13-.17-.24-.24-.37-.18-.27-.38-.54-.6-.82-.09-.12-.15-.22-.24-.33-.6-.79-1.31-1.63-2.11-2.48l-.36-.36c-.29-.31-.6-.61-.92-.92-.17-.15-.33-.31-.51-.46-.29-.27-.6-.55-.92-.82-.2-.17-.41-.33-.61-.5-.32-.26-.65-.51-1-.77-.23-.17-.45-.33-.68-.5-.36-.26-.74-.5-1.13-.76-.24-.15-.47-.31-.72-.46-.44-.27-.9-.52-1.37-.77-.22-.12-.44-.24-.65-.36-.7-.36-1.43-.72-2.2-1.04-.04-.01-.08-.03-.12-.04-.67-.28-1.36-.55-2.09-.81-.06-.59-.1-1.22-.1-1.91,0-17.11,11.97-35.65,38.25-35.94h.01ZM64.8,168.31c3.51-9.92,12.81-26.02,36.27-26.02,1.14,0,2.33.04,3.54.12,3.52.23,6.82.88,9.83,1.91.81.27,1.57.58,2.32.88.24.1.47.22.72.33.49.22.96.44,1.42.68.27.14.52.28.78.42.41.22.81.45,1.19.68.26.15.5.31.74.47.36.23.72.47,1.06.7.23.17.46.32.68.49.33.24.65.5.97.76.19.15.4.32.59.47.33.28.64.55.95.83.15.14.31.27.45.41.4.38.78.77,1.14,1.14.03.04.06.06.1.1.4.41.76.83,1.1,1.23.1.13.19.24.29.36.23.28.45.55.65.82.12.14.22.28.32.42.18.23.35.47.5.69.1.14.19.27.28.41.14.22.28.42.41.63.08.12.15.24.23.36.13.2.24.4.35.58.05.09.12.19.17.28.12.19.2.37.29.55.03.05.06.12.09.17.12.22.2.41.28.56-1.77.91-3.47,1.93-5.07,3.07-5.34,3.75-9.62,8.66-12.49,14.21-10.92-8.4-22.04-4.72-22.15-4.68-.32.12-.49.46-.38.78s.47.49.78.38c.1-.04,10.76-3.51,21.19,4.66-2.37,4.93-3.58,10.2-3.58,15.68,0,3.51.5,6.96,1.5,10.28-.41.17-.82.38-1.24.56-.58.26-1.15.51-1.71.78-.15.08-.31.17-.46.24-2.33,1.18-4.57,2.55-6.71,4.08-.5.36-1.01.7-1.5,1.07-5.76-.83-11.13-2.32-16.01-4.43-19.91-8.63-23.6-27.49-19.86-38.12h-.01ZM74.3,330.36c.22.17.44.33.65.5-.22-.17-.44-.33-.65-.5ZM76.33,331.91c.1.08.22.15.33.24-.12-.08-.22-.15-.33-.24ZM132.96,281.3v.09c-4.35,7.17-13.53,25.19-7.18,40.88,1.97,4.88.65,10.61-3.46,14.97-2.65,2.82-6.78,5.27-12.08,6.16.51-.14,1.02-.31,1.51-.5,0,0-2.76-14.06-17.99-33.13-8.42-10.56-20.71-20.92-27.25-19.95,5.02-3.61,12.06-5.16,20.13-4.34,17.2,1.73,26.26,34.44,26.35,34.77l1.2-.22v-.14c-.49-4.67-1.77-20.71,1.75-30.73,1.11-3.17,3.3-6.85,6.53-10.95.31-.4.65-.78.97-1.18,4.17-.61,8.66,2.97,9.78,3.93-.05.09-.1.17-.15.26l-.13.13v-.04ZM152.58,260.6c-.63.68-2.06,2.01-2.06,2.02-.59.52-1.25,1.07-2.1,1.71l-.24.17c-.15.1-.29.2-.44.32-.06.05-.14.1-.22.15h0s-.05.04-.12.09c-5.18,4.02-16.14,6.01-19.95,6.01h-.1c-13.83-.14-30.91-6.36-37.88-19.91-10.29-20.02,6.49-35.13,11.94-39.33,2.7-2.06,5.63-3.89,8.64-5.36.26-.13.52-.24.79-.36.61-.29,1.23-.56,1.84-.82.84,2.47,2.15,4.71,3.4,6.87l.19.31h0c2.51,4.18,6.13,8.11,10.78,11.71-10.08,6.5-10.19,17.31-10.19,17.42,0,.33.28.61.61.61h0c.35,0,.61-.28.61-.61,0-.1.1-10.53,9.99-16.64,13.19,9.67,29.11,7.86,33.26,7.17.5,4.08.58,10.01-1.54,16.3l-.08.22.09.22h0c-1.55,4.34-3.97,8.28-7.24,11.72h-.01ZM161.2,248.67c2.28-6.78,2.19-12.86,1.68-16.92,7.09-1.55,13.62-4.79,18.99-9.42,11.39,5.2,13.54,14.88,13.57,14.99.06.29.32.49.6.49h.13c.33-.06.55-.4.47-.73-.09-.42-2.24-10.12-13.78-15.63,4.31-3.98,7.7-8.79,9.8-14.01.36-.86.68-1.75.96-2.67l.84.12c.26.04.52.06.78.1.37.05.74.1,1.11.17.24.04.5.08.74.12.37.05.72.12,1.07.18.24.04.47.08.72.12.35.06.69.13,1.02.19.23.04.46.09.69.13.33.06.65.13.97.19.23.05.46.09.68.14.32.06.63.14.95.2.22.05.44.1.65.15.31.08.61.15.92.23.2.05.42.1.63.15.29.08.59.15.87.24.2.05.41.12.61.17.28.08.56.17.84.26.19.06.4.12.59.18.28.09.55.18.82.27.19.06.38.13.58.19.27.09.54.19.79.29.18.06.37.13.55.2.27.1.54.2.79.32.17.06.35.13.51.2.29.12.58.24.86.37.14.06.27.12.41.18.33.15.67.31,1,.46.08.04.17.08.24.12.82.4,1.61.82,2.41,1.25h.03c2.92,1.64,5.77,3.66,8.97,6.36,6.5,5.48,11.18,21.47,3.7,34.05-4.02,6.77-13.45,22.64-34.92,21.22-7.6-.5-14.53-3.1-20.6-7.76-.06-.05-.13-.09-.19-.15l-7.4-7.37c-.55-.7-1.07-1.41-1.55-2.07l-.04-.05c-2.34-3.29-3.66-6.01-4.11-7.01.03-.05.04-.12.06-.17l-.03-.04ZM242.22,329.95c-2.73,6.17-7.64,10.67-13.81,12.7-5.75,1.87-11.94,1.28-16.98-1.63-4.31-2.5-7.47-10.38-7.05-17.6.17-2.92,1.11-8.09,5.46-9.96,9.79-4.21,8.64-11.15,8.57-11.44l-1.22.15s.15,3.15-2.89,6.35c-3.14,3.3-10.24,7.22-26.21,7.03-8.1-.09-14.47-2.96-18.94-8.54-9.39-11.74-7.96-32.01-6.48-39.74,3.6,6.35,8.97,9.55,10.44,10.34.54,9.85,3.6,20.8,14.38,21.53,9.43.65,13.4-2.94,17.58-6.74,4.56-4.13,9.28-8.42,21.73-8.59h.32c6.22,0,10.98,2.43,14.15,7.24,7.22,10.93,4.47,30.82.9,38.88h.03Z"/>
    <path class="cls-1" d="M141.28,282.55c-.36.03-.55.28-.77.5-.64.63-1.25,1.28-1.8,1.97-1.61,2.02-2.93,4.22-3.98,6.51-.67,1.45-1.24,2.94-1.69,4.45-.09.2-.09.45.01.65.31.69,1.52.73,1.79.05,1.75-5.64,4.21-8.91,7.31-13.27.17-.44-.35-.93-.87-.87h0Z"/>
    <path class="cls-1" d="M146.54,278.59c-1.02-.4-1.64.95-.61,1.34,1.02.4,1.64-.95.61-1.34Z"/>
  </g>
  <g>
    <path class="cls-1" d="M6.28,64.2c.56-.58,1.18-1.1,1.83-1.57,1.2-.97,2.42-1.79,3.66-2.47,1.23-.68,2.55-1.23,3.95-1.66s2.83-.59,4.26-.47,2.78.52,4.01,1.23c2.11,1.14,2.73,3.19,1.98,6.13-.69,2.44-1.45,4.04-2.33,4.81s-1.87.92-2.96.45c-.19-.08-.79-.59-1.78-1.52-.99-.95-2-1.87-3.02-2.78-1.02-.91-2.2-1.61-3.51-2.11-1.32-.49-2.44-.44-3.39.18-.47.37-.92.77-1.34,1.19-1.07,1.09-1.79,2.37-2.14,3.83-.35,1.46-.29,2.79.17,3.97.45,1.19,1.2,1.97,2.24,2.35.46.17,1.02.26,1.66.26s1.47-.09,2.47-.29c1.01-.2,1.78-.36,2.32-.47s1.47-.36,2.83-.72c1.34-.36,2.15-.54,2.41-.59,2.2-.51,3.99-.84,5.4-1.05,1.41-.2,2.92-.31,4.53-.31s2.96.19,4.07.56c1.1.37,2.2.93,3.28,1.7,1.09.77,2.03,1.75,2.88,2.93,2.2,3.11,3.06,6.01,2.62,8.7-.44,2.7-2.16,5.45-5.13,8.45-.01.01-.04.04-.05.05-.33.35-.72.68-1.13.99-4.1,4.06-7.63,5.9-10.88,5.3-.73-.14-1.41-.38-2.06-.74-.65-.35-1.27-.9-1.86-1.64-.58-.74-.97-1.63-1.15-2.62-.28-1.59-.24-2.96.08-4.1.32-1.13.81-1.89,1.43-2.3.63-.4,1.28-.55,1.96-.44.24.03.9.37,1.97,1.05s2.19,1.37,3.33,2.07c1.14.7,2.39,1.18,3.74,1.45s2.44.1,3.31-.5c.18-.24.38-.46.59-.68.99-1.47,1.37-3.06,1.15-4.81s-1.04-2.82-2.48-3.17c-.42-.12-1.14-.12-2.15.04-1.01.15-2.34.41-4.01.78-1.66.37-2.8.64-3.4.78-1.42.32-2.56.58-3.39.74-.83.17-1.88.36-3.15.58-1.25.22-2.3.35-3.14.36s-1.8-.01-2.93-.09c-1.13-.06-2.14-.26-3.03-.59-.9-.32-1.87-.77-2.89-1.34-1.04-.58-2.05-1.29-3.06-2.15-5.95-4.99-5.45-11.9,2.2-19.67,0,0,.03-.03.04-.04h-.01Z"/>
    <path class="cls-1" d="M60.36,50.24c3.24,5.54,4.93,10.39,5.22,14.5.29,4.12-.81,7.08-3.39,9.05-.06.04-.14.1-.23.15-.26.18-.55.33-.87.46-1.38.88-2.73,1.57-4.04,2.07s-2.78.77-4.42.81c-1.64.04-3.29-.24-4.95-.87-1.68-.63-3.53-1.7-5.57-3.25s-4.13-3.56-6.26-6.08c-.03-.03-.05-.06-.08-.09-.03-.03-.05-.06-.08-.09-1.87-2.25-3.78-4.22-5.75-5.91s-3.62-2.96-4.93-3.81-2.06-1.39-2.27-1.63c-.99-1.1-1.28-2.52-.84-4.25s1.93-3.65,4.5-5.67c2.6-2.05,4.84-3.05,6.63-3.06s3.1.6,3.93,1.82c.18.24.44.91.77,1.97s.72,2.23,1.13,3.47c.41,1.25,1.11,2.83,2.1,4.75,1,1.91,2.14,3.72,3.43,5.46.03.03.05.06.06.09.03.03.05.06.06.09,3.11,4.3,6.23,7.56,9.28,9.85s5.32,3.06,6.9,2.29c.03-.01.06-.05.13-.09s.12-.08.17-.12c2.41-1.79,3.37-4.52,2.98-8.32-.4-3.79-2.14-8.33-5.35-13.58-.29-.49-.6-.97-.9-1.46-1.59-2.59-3.21-5.2-4.86-7.83-.6-.79-1.27-1.46-2.03-1.98s-1.45-.91-2.05-1.14c-.6-.23-1.2-.51-1.79-.86-.59-.35-1.02-.74-1.32-1.19-.42-.68-.55-1.36-.35-2.07.2-.7.96-1.48,2.3-2.3,2.44-1.5,4.07-1.38,4.82.23.29.63.45,1.43.49,2.42.04.99.17,2.09.4,3.28s.69,2.38,1.37,3.56c0,.01.03.04.03.05.03,0,.05.01.06.03,0,0-.03.01-.04.03,1.41,2.34,2.83,4.68,4.24,7.03.4.6.68,1.05.86,1.34.01.04.03.08.03.12.14.24.29.49.44.73h.04Z"/>
    <path class="cls-1" d="M84.44,55.48c-.23-.23-.61-.78-1.19-1.66s-1.2-1.86-1.92-2.93c-.72-1.07-1.78-2.43-3.22-4.07s-3.08-3.24-4.93-4.77c-3.02-2.48-6.42-4.67-10.25-6.53.12.28.24.55.4.82,3.15,5.81,6.3,11.62,9.43,17.42.68,1.19,1.45,2.16,2.32,2.93.87.77,1.64,1.41,2.33,1.96.68.54,1.19,1.11,1.51,1.71.37.7.47,1.38.33,2.05-.14.65-.78,1.28-1.88,1.88-2,1.1-3.39.86-4.18-.78-.27-.51-.44-1.13-.54-1.86-.1-.73-.15-1.41-.17-2.03-.01-.63-.14-1.42-.4-2.39-.24-.97-.64-1.93-1.16-2.91-.01-.04-.04-.06-.05-.1-3.03-5.48-6.08-10.95-9.11-16.43-.01-.04-.04-.06-.05-.1-.41-.73-.88-1.39-1.43-2.01-.55-.6-1-1.04-1.36-1.29-.35-.26-.86-.59-1.52-1.01-.67-.41-1.07-.68-1.25-.79-.29-.14-.5-.26-.64-.36-.51-.32-.92-.68-1.22-1.07s-.47-.86-.51-1.38c-.04-.52.08-1.06.35-1.61s.78-1.15,1.52-1.8c.74-.65,1.71-1.31,2.93-1.95,2.8-1.48,5.31-2.16,7.47-2.06s3.86.7,5.12,1.75c.24.22.81.95,1.69,2.2.88,1.24,2.2,2.87,3.94,4.89,1.74,2.02,3.79,4.11,6.1,6.28,3.08,2.84,6.26,5.46,9.51,7.92-.13-.4-.27-.77-.41-1.13-.01-.04-.03-.06-.04-.1-2.34-5.81-4.68-11.62-7.01-17.43-.01-.04-.03-.06-.04-.1-.41-1.02-.93-1.93-1.56-2.71-.63-.79-1.2-1.38-1.74-1.78-.52-.4-1.06-.84-1.63-1.33-.55-.49-.96-.99-1.2-1.5-.37-.72-.38-1.41-.06-2.1.33-.69,1.22-1.33,2.69-1.92,1.43-.56,2.5-.7,3.16-.44.68.27,1.16.81,1.45,1.59.24.64.31,1.39.19,2.27-.12.87-.18,1.91-.19,3.08-.01,1.19.2,2.42.65,3.72,2.41,6.16,4.81,12.3,7.22,18.45.55,1.25,1.2,2.32,1.95,3.19.76.87,1.43,1.61,2.05,2.24.61.61,1.04,1.25,1.28,1.89.35.92.35,1.68,0,2.25-.51,1.16-1.8,2.15-3.88,3.01-2.35.97-4.44,1.33-6.28,1.05s-3.35-.97-4.53-2.1h-.01Z"/>
    <path class="cls-1" d="M109.11,51.21c-2.43.77-4.33.88-5.76.27-1.43-.6-2.39-1.59-2.88-2.99-.1-.28-.2-.96-.28-2.05-.08-1.07-.17-2.27-.26-3.56s-.35-2.98-.74-5.04c-.4-2.07-.95-4.13-1.66-6.17-.72-2.07-1.57-4.06-2.56-5.93-1-1.87-1.88-3.31-2.67-4.38-.79-1.05-1.51-2.01-2.19-2.88-.67-.87-1.06-1.45-1.16-1.73-1.09-2.78,1.23-5.36,7.06-7.37,1.37-.47,2.67-.84,3.94-1.14,2.64-.78,5.29-1.51,7.93-2.18.76-.23,1.87-.56,3.39-.99,1.51-.42,2.69-.72,3.54-.93.86-.2,1.86-.41,2.99-.61,1.14-.19,2.15-.27,2.99-.22.84.05,1.63.2,2.3.46.95.37,1.6.93,1.93,1.68.33.76.41,2.03.23,3.83-.6,4.77-1.93,6.69-4.18,5.84-.73-.28-1.47-.76-2.25-1.42s-1.51-1.36-2.18-2.06c-.67-.7-1.37-1.39-2.1-2.07-.73-.67-5.78-3.14-6.68-3.49-.9-.35,2.39,1.5,1.41,1.63-1.24.31-2.47.63-3.7.96-.45.4-.77.92-.99,1.6-.22.67-.29,1.54-.26,2.61.05,1.07.14,2.11.29,3.11.14,1,.41,2.3.78,3.89.38,1.59.73,2.94,1.02,4.06.31,1.11.73,2.62,1.28,4.52.06.22.17.6.33,1.15.42-1.07,1-2.02,1.71-2.84,0-.01,0-.04-.01-.05,1.34-1.66,2.67-2.89,3.97-3.67,1.29-.79,2.37-1.22,3.24-1.31,1.18-.15,1.98.72,2.39,2.61.24,1.07.26,1.89.05,2.47-.2.56-.55.9-1.05.97-.24.05-.74-.06-1.51-.35-.76-.28-1.6-.5-2.5-.63-.91-.13-1.71.03-2.42.45-1.54,1.15-2.53,2.83-2.98,5,.76,2.03,1.57,3.93,2.43,5.69s1.57,3.16,2.14,4.16c.56,1.01.88,1.66.96,1.95.42,1.42.22,2.78-.58,4.1-.78,1.31-2.38,2.3-4.77,3.06h-.03Z"/>
    <path class="cls-1" d="M158.98,30.86c1.82-1.33,3.42.33,4.62,4.98.41,1.75.51,3.02.35,3.81-.18.79-.61,1.46-1.32,1.98-.5.38-1.09.67-1.74.86-.67.19-1.46.33-2.38.41s-1.73.13-2.42.13-1.66,0-2.93.01c-1.27,0-2.21.03-2.84.03-2.19.15-4.36.35-6.54.58-1.01.18-2.09.33-3.24.44-4.88.47-7.54-.63-8-3.61-.05-.29-.03-.99.09-2.06s.23-2.27.38-3.54c.14-1.29.2-2.99.18-5.09-.03-2.11-.19-4.25-.52-6.42-.33-2.14-.81-4.21-1.43-6.23-.64-2.01-1.24-3.62-1.83-4.81s-1.13-2.27-1.63-3.22-.78-1.6-.83-1.95c-.27-1.46.18-2.8,1.39-4.03s3.4-2.09,6.54-2.48c3.1-.38,5.4-.1,6.85.78,1.46.9,2.21,2.09,2.32,3.56.03.31-.1,1.2-.4,2.73-.28,1.51-.51,3.56-.68,6.12-.17,2.57-.09,5.31.19,8.22.19,1.93.35,3.47.47,4.65.13,1.16.31,2.56.54,4.18.23,1.61.45,2.92.67,3.9.22.99.47,1.98.78,2.98s.64,1.79,1.01,2.37.78.99,1.23,1.2c1.04-.09,2.07-.17,3.1-.23.81-.17,1.51-.55,2.12-1.15s1.15-1.31,1.59-2.12.86-1.65,1.25-2.5c.4-.84.86-1.7,1.39-2.55.52-.84,1.09-1.48,1.66-1.92v.03Z"/>
    <path class="cls-1" d="M197.65,23.93c-.52,2.96-1.29,5.57-2.27,7.87-.97,2.29-2.05,4.16-3.2,5.62-1.16,1.45-2.44,2.64-3.85,3.56-1.41.93-2.84,1.57-4.29,1.93-1.46.36-2.94.51-4.5.44-.31,0-.56,0-.79-.01-.23-.03-.49-.06-.78-.13-1.56-.2-3.01-.61-4.36-1.23-1.34-.61-2.62-1.5-3.84-2.67-1.22-1.16-2.27-2.56-3.16-4.2-.9-1.63-1.6-3.66-2.14-6.09-.52-2.43-.81-5.14-.79-8.14.01-3.53.5-6.71,1.52-9.52,1.02-2.82,2.42-5.07,4.21-6.74s3.83-2.91,6.08-3.69c2.27-.78,4.67-1.06,7.17-.84,2.5.23,4.82.93,6.92,2.11,2.11,1.18,3.89,2.75,5.36,4.72,1.46,1.97,2.43,4.43,2.93,7.38.5,2.96.41,6.17-.22,9.64h0ZM178.93,41.34c.1,0,.24.03.41.04,1.2-.12,2.34-1.14,3.46-3.08s2.06-4.33,2.82-7.15c.77-2.83,1.36-5.91,1.74-9.25.38-3.34.51-6.45.36-9.33-.15-2.88-.68-5.32-1.59-7.31-.91-1.98-2.12-3.06-3.63-3.19-1.45-.13-2.79.7-3.97,2.51-1.19,1.79-2.1,4.11-2.75,6.91-.65,2.82-1.06,5.89-1.28,9.24-.22,3.35-.2,6.5-.01,9.43.19,2.94.65,5.45,1.36,7.54s1.6,3.29,2.71,3.61c.15.01.28.03.38.04Z"/>
    <path class="cls-1" d="M199.33,6.96c-.04-.51-.03-1.01.03-1.52.05-.51.27-.96.65-1.36.38-.4.87-.73,1.45-.99.59-.27,1.38-.41,2.39-.44s2.16.09,3.46.36c3.11.64,5.37,1.7,6.81,3.11,1.42,1.42,2.12,2.89,2.15,4.43-.03.23-.18.9-.46,2s-.59,2.24-.92,3.4-.61,2.82-.88,4.94c-.26,2.12-.37,4.31-.35,6.55.01,2.28.18,4.63.46,7.05.29,2.42.51,4.11.7,5.04.19.95.46,2.29.81,4.06,3.83-7.33,7.84-14.59,12.06-21.76-.14-1.28-.33-2.57-.59-3.86-.26-1.29-.46-2.32-.64-3.06-.17-.74-.24-1.28-.2-1.59,0-.51.06-1.02.2-1.51.13-.5.42-.91.84-1.25.44-.35.96-.61,1.57-.79s1.42-.23,2.42-.13,2.12.37,3.38.79c3.02,1.04,5.16,2.38,6.4,3.97s1.77,3.16,1.59,4.68c-.03.23-.26.88-.68,1.93-.42,1.06-.87,2.15-1.34,3.26-.49,1.11-.97,2.71-1.51,4.8-.54,2.07-.95,4.25-1.24,6.5-.24,2.24-.36,4.58-.36,7.03-.01,2.44-.01,4.13.04,5.09s.17,2.34.32,4.15c4.91-7.01,10.02-13.91,15.33-20.69.97-1.47,1.55-2.61,1.73-3.43.17-.82.33-1.69.5-2.6.15-.91.45-1.64.88-2.19.51-.64,1.16-1.05,1.97-1.2.79-.17,1.91.1,3.3.79,2.53,1.27,3.11,2.6,1.79,3.92-.41.44-.97.84-1.71,1.23s-1.46.73-2.14,1.02-1.46.77-2.33,1.41c-.87.65-1.65,1.42-2.35,2.3-.03-.01-.05,0-.06.03-5.99,7.55-11.75,15.24-17.26,23.07-.51,1.06-1.37,1.71-2.56,1.97s-2.74-.03-4.68-.83c-2.32-.95-3.93-2.12-4.86-3.6-.93-1.46-1.32-2.94-1.14-4.45.05-.31.33-1.16.82-2.57.5-1.42,1.04-3.38,1.61-5.89s1-5.27,1.23-8.28c.13-2.2.14-4.38.04-6.54-4.27,7.23-8.36,14.56-12.23,21.96-.37,1.11-1.13,1.88-2.25,2.29-1.13.42-2.69.33-4.7-.2-2.42-.65-4.17-1.6-5.26-2.93s-1.65-2.74-1.66-4.26c0-.31.14-1.2.45-2.67.31-1.47.6-3.48.87-6.04.27-2.56.33-5.35.15-8.37-.19-3.06-.59-5.96-1.2-8.69-.6-2.73-1.23-4.9-1.8-6.53-.59-1.63-.91-2.6-.95-2.91h-.05Z"/>
    <path class="cls-1" d="M281.56,36.11c-.55-.27-1.15-.29-1.82-.09s-1.38.67-2.15,1.37c-.78.7-1.51,1.45-2.21,2.24s-1.52,1.88-2.47,3.26c-.95,1.38-1.77,2.59-2.44,3.63-.69,1.05-1.56,2.43-2.62,4.13-.36.58-.74,1.19-1.14,1.84,1.45-.7,2.91-1.06,4.38-1.07,0-.01.03-.03.03-.05,2.15-.1,3.98.09,5.46.55s2.57,1.01,3.26,1.64c.93.81.83,2-.29,3.57-.64.9-1.25,1.45-1.82,1.68-.58.22-1.05.17-1.46-.17-.22-.15-.47-.61-.78-1.38-.31-.77-.73-1.55-1.27-2.32-.54-.77-1.22-1.29-2.01-1.55-1.2-.24-2.44-.18-3.72.2s-2.47,1.01-3.58,1.88c-2.21,3.72-3.8,6.74-4.79,9.06-.99,2.32-1.13,3.79-.45,4.4.95.61,1.89,1.23,2.83,1.86.77.37,1.57.52,2.44.45.87-.06,1.74-.29,2.61-.68s1.74-.78,2.59-1.2c.84-.42,1.75-.79,2.7-1.11s1.79-.46,2.53-.44c2.32.12,2.64,2.44.82,6.86-.73,1.64-1.42,2.73-2.05,3.24-.63.51-1.39.76-2.3.73-.65-.03-1.32-.17-2-.42s-1.42-.65-2.21-1.19c-.81-.54-1.48-1.04-2.07-1.47-.59-.45-1.39-1.06-2.43-1.84-1.04-.78-1.83-1.37-2.34-1.75-1.71-1.14-3.46-2.25-5.21-3.33-1.31-.45-2.56-1.02-3.78-1.73-2.24-1.31-3.62-2.65-4.15-4.12s-.45-2.85.27-4.15c.14-.27.58-.79,1.33-1.59.76-.78,1.57-1.65,2.48-2.59s1.98-2.25,3.25-3.93c1.27-1.69,2.43-3.47,3.47-5.37,1.06-1.93,1.95-3.89,2.66-5.87.7-1.98,1.19-3.63,1.43-4.91.24-1.29.46-2.48.65-3.56s.36-1.75.5-2.02c1.32-2.67,4.82-2.69,10.34.35,1.1.6,2.14,1.24,3.11,1.92,2.56,1.55,5.08,3.16,7.59,4.81.69.41,1.73,1.05,3.1,1.92,1.37.87,2.42,1.57,3.17,2.09s1.6,1.14,2.55,1.88,1.7,1.47,2.27,2.15c.56.69.99,1.38,1.27,2.09.4.97.42,1.84.1,2.6-.33.76-1.24,1.66-2.71,2.73-4.01,2.7-6.39,2.94-7.32.64-.29-.74-.46-1.63-.51-2.67s-.04-2.06.03-3.03c.06-.99.1-1.97.1-2.97s-.18-1.96-.55-2.88c-.37-.92-.95-1.73-1.74-2.39-.96-.64-1.92-1.28-2.88-1.91h-.04Z"/>
    <path class="cls-1" d="M308.86,53.22c3.84,3.39,5.21,6.44,4.22,8.89,2.7-.41,5,.32,6.82,2.16,0,.04.03.08.03.12,3.19,2.8,4.66,6.17,4.38,9.87-.29,3.71-2.14,6.95-5.4,9.79-4.2,3.69-8.02,4.91-11.45,3.9,1.04,2.67.49,4.86-1.56,6.54-1.06.86-1.87,1.65-2.41,2.39s-.86,1.33-.95,1.77c-.09.45-.26.95-.47,1.51s-.55,1.07-1.01,1.54c-.99,1.06-2.3,1.43-3.92,1.16s-3.33-1.42-5.18-3.43c-1.86-2-2.87-3.75-2.99-5.34-.13-1.59.32-2.92,1.41-3.98.2-.17.59-.37,1.16-.61.56-.24,1.19-.49,1.88-.74.69-.26,1.6-.73,2.75-1.43s2.32-1.55,3.51-2.56c.42-.38.56-.84.4-1.42-.15-.56-.59-1.25-1.29-2.05-1.46-1.28-2.78-1.74-3.89-1.39-1.29.4-2.78,2.06-4.48,4.93-1,1.98-1.59,3.07-1.78,3.26-1,1.09-2.3,1.57-3.9,1.51s-3.37-1.01-5.37-2.78c-1.98-1.75-3.11-3.35-3.34-4.91-.24-1.55.1-2.89,1.05-4.03.19-.23.91-.82,2.15-1.74,1.24-.92,2.83-2.25,4.76-3.98,1.93-1.73,3.84-3.71,5.69-5.96,1.88-2.28,3.48-4.54,4.77-6.8,1.29-2.25,2.24-4.11,2.83-5.55.6-1.45.97-2.28,1.14-2.48.93-1.2,2.27-1.77,4.03-1.64,1.77.13,3.92,1.25,6.41,3.44v.05ZM317.13,64.65c-2.1-1.19-4.89-.95-8.29.74-4.17,2.27-7.73,5.05-10.74,8.27-1.42,1.54-2.7,3.14-3.85,4.81.24-.09.45-.15.61-.2,1.71-.52,3.58.09,5.55,1.87.37.26.76.55,1.13.88.91.32,2.14.05,3.71-.78s3.15-1.98,4.71-3.44c1.57-1.46,3.03-2.99,4.36-4.61,1.34-1.61,2.29-3.15,2.85-4.57.56-1.43.54-2.42-.05-2.96h0Z"/>
  </g>
  <path class="cls-1" d="M35.57,350.68c3.06,3.25,4.08,5.95,2.99,8.36,2.59-.51,4.65-.03,6.27,1.46,0,.04.08.05.09.08,2.85,2.21,4.18,4.98,4.16,8.48-.03,3.49-1.31,6.95-4.01,10.35-3.46,4.39-8.01,5.75-11.75,5.04,1.55,2.64,1.51,4.95-.23,6.97-.91,1.02-1.55,1.96-1.93,2.8-.37.84-.55,1.51-.52,2s0,1.04-.05,1.68c-.06.63-.26,1.22-.6,1.78-.73,1.27-2.03,1.83-3.95,1.64s-3.29-.83-6.01-3.19-4.33-4.5-4.8-6.35c-.49-1.84-.17-3.31.9-4.39.2-.17.61-.36,1.22-.58s1.27-.44,2.01-.67c.73-.23,1.68-.7,2.84-1.41,1.16-.72,2.32-1.6,3.47-2.66.41-.4.5-.9.26-1.51-.23-.6-.76-1.33-1.57-2.21-1.66-1.42-3.08-2.02-4.27-1.75-1.37.31-2.92,1.91-4.57,4.88-.92,2.09-1.46,3.22-1.65,3.42-1.01,1.09-2.44,1.46-4.33,1.06-1.88-.4-3.7-1.74-6.22-4.43-2.5-2.66-2.79-3.69-3.06-5.58-.27-1.89.19-3.31,1.34-4.25.23-.19,1.07-.59,2.55-1.19,1.46-.6,3.33-1.56,5.58-2.89s4.47-2.97,6.67-4.9c2.23-1.96,4.16-3.95,5.8-5.98,1.64-2.02,2.89-3.69,3.76-4.99.86-1.31,1.39-2.03,1.6-2.21,1.14-1.01,2.52-1.34,4.15-1.04,1.64.31,2.42.74,3.9,2.18h-.01ZM42.24,361.13c-1.92-.91-4.54-.51-7.93,1.16-4.16,2.25-7.86,4.86-11.02,7.95-1.48,1.47-2.82,3.05-4.01,4.71.26-.06.47-.12.65-.15,1.83-.37,3.81.42,6.01,2.34.41.28.83.6,1.27.95.99.33,2.24.05,3.79-.86,1.54-.91,3.03-2.16,4.5-3.74,1.47-1.57,2.82-3.21,4.06-4.9,1.24-1.7,2.12-3.25,2.66-4.67s.54-2.34,0-2.79h.01Z"/>
  <path class="cls-1" d="M79.57,388.05c-.5-.18-1.05-.13-1.65.15s-1.25.81-1.97,1.56c-.7.76-1.39,1.56-2.03,2.39-.65.84-1.41,1.97-2.29,3.39-.88,1.42-1.64,2.67-2.28,3.76-.64,1.07-1.45,2.51-2.43,4.26-.33.6-.69,1.23-1.06,1.89,1.48-.73,2.99-1.15,4.5-1.24,0-.01.01-.04.03-.05,2.23-.23,4.1-.23,5.66.05,1.56.27,2.73.65,3.52,1.16,1.06.64,1.19,1.83.37,3.58-.47,1-.97,1.65-1.51,1.97-.54.31-1.06.33-1.55.05-.26-.12-.61-.55-1.09-1.29-.46-.74-1.04-1.47-1.71-2.19-.68-.73-1.45-1.19-2.32-1.38-1.28-.15-2.57-.01-3.89.41-1.32.44-2.55,1.09-3.67,1.98-2.03,3.84-3.44,6.96-4.21,9.38-.77,2.42-.65,3.99.32,4.7,1.29.69,2.59,1.37,3.89,2.05,1.02.4,2.05.54,3.06.42,1.01-.12,1.98-.41,2.89-.87.91-.47,1.79-.96,2.65-1.48.84-.52,1.77-1.01,2.73-1.47s1.86-.73,2.67-.82c2.56-.27,3.57,1.97,3.24,6.81-.19,1.82-.52,3.06-1.04,3.71-.5.65-1.31,1.05-2.38,1.16-.77.09-1.61.05-2.53-.13-.91-.17-1.96-.5-3.12-.99-1.16-.49-2.18-.95-3.03-1.38-.86-.42-2.05-1.04-3.56-1.86s-2.64-1.45-3.38-1.87c-2.42-1.25-4.82-2.56-7.2-3.92-1.71-.61-3.39-1.42-5.02-2.41-2.99-1.8-4.86-3.62-5.59-5.35s-.65-3.2.19-4.42c.17-.26.7-.72,1.59-1.38.88-.67,1.86-1.41,2.89-2.23,1.05-.82,2.29-2.01,3.71-3.57,1.43-1.56,2.73-3.28,3.89-5.09,1.19-1.86,2.2-3.76,3.06-5.71.84-1.95,1.46-3.54,1.83-4.8.37-1.27.7-2.42,1.01-3.47.31-1.05.55-1.7.72-1.96,1.64-2.55,4.74-2.29,9.46.37.95.52,1.84,1.07,2.7,1.65,2.23,1.28,4.49,2.52,6.76,3.7.63.28,1.57.72,2.83,1.27,1.25.56,2.24.99,2.94,1.29.7.31,1.5.69,2.41,1.15.91.45,1.65.92,2.23,1.39.58.49,1.05,1.01,1.41,1.57.5.79.69,1.59.55,2.39s-.74,1.93-1.84,3.38c-3.01,3.74-5.26,4.57-6.58,2.56-.42-.64-.73-1.47-.93-2.47-.22-1-.35-1.97-.42-2.93-.06-.96-.15-1.92-.26-2.88-.1-.96-.36-1.84-.77-2.66-.41-.82-.97-1.47-1.71-1.98-.9-.46-1.78-.92-2.66-1.39v.04Z"/>
  <path class="cls-1" d="M123.95,418.13c-.05-.36.05-.92.29-1.69.23-.77.46-1.73.68-2.89s.4-2.29.55-3.42c.15-1.11.12-2.18-.09-3.17-.2-1-.63-1.71-1.25-2.18-.41-.17-.82-.31-1.22-.4-1.09-.26-2.27.44-3.54,2.05-1.28,1.63-2.5,3.76-3.61,6.44-1.13,2.67-2.14,5.62-3.03,8.84-.9,3.22-1.54,6.31-1.89,9.24-.36,2.93-.35,5.52.08,7.74.42,2.23,1.28,3.6,2.53,4.08.23.05.37.09.44.1.45.1.93.18,1.45.22.92-.1,1.71-.56,2.39-1.37.69-.81,1.18-1.74,1.51-2.8.33-1.06.63-2.18.91-3.34.28-1.16.45-2.15.52-2.96.08-.81.2-1.36.4-1.66.6-1.04,1.5-1.52,2.67-1.46s2.74.84,4.77,2.32c2.37,1.83,3.12,3.84,2.11,6.08-.59,1.25-1.41,2.37-2.47,3.33-1.05.96-2.27,1.71-3.6,2.24-1.34.52-2.7.92-4.06,1.16-1.37.26-2.79.4-4.27.41-.97.06-1.91-.01-2.8-.23-.29-.06-.64-.17-1.02-.29-2.53-.72-4.72-1.78-6.57-3.15-1.83-1.37-3.31-3.11-4.43-5.18-1.11-2.09-1.65-4.59-1.64-7.52s.64-6.18,1.83-9.75c1.13-3.39,2.55-6.28,4.24-8.68s3.49-4.22,5.4-5.49c1.92-1.28,3.88-2.09,5.93-2.47,2.03-.37,4.1-.32,6.19.18.58.14,1.16.37,1.75.69,1.11.6,2.15,1.24,3.12,1.95.97.7,1.91,1.52,2.8,2.48.9.96,1.65,2.06,2.25,3.31s.96,2.59,1.09,3.99c.23,2.42-.96,4.16-3.67,5.12-2.28.73-3.98.87-5.04.49-1.07-.38-1.65-1.18-1.73-2.37h.03Z"/>
  <path class="cls-1" d="M184.11,427.76c.31,2.99.27,5.73-.15,8.22-.42,2.48-1.13,4.58-2.11,6.3-.99,1.7-2.27,3.19-3.83,4.4-1.56,1.23-3.26,2.15-5.09,2.76-1.83.61-3.8.97-5.87,1.07-.4.04-.76.06-1.06.06s-.65-.01-1.06-.05c-2.11-.06-4.1-.38-5.93-.96s-3.54-1.46-5.12-2.65c-1.59-1.19-2.89-2.64-3.94-4.33-1.04-1.69-1.79-3.78-2.25-6.25s-.54-5.21-.29-8.2c.29-3.52,1.05-6.65,2.23-9.41s2.6-4.94,4.27-6.59c1.68-1.64,3.48-2.89,5.44-3.76,1.96-.87,4.01-1.31,6.17-1.33,2.16-.03,4.22.37,6.22,1.2,2,.82,3.84,2.03,5.54,3.65,1.7,1.61,3.17,3.76,4.4,6.5,1.23,2.73,2.06,5.85,2.43,9.37h.01ZM165.98,448.6h.55c1.56-.24,2.89-1.42,3.95-3.51s1.77-4.61,2.14-7.52c.36-2.93.44-6.07.24-9.43-.18-3.37-.6-6.45-1.2-9.28-.61-2.83-1.46-5.17-2.52-7.01-1.06-1.86-2.24-2.76-3.58-2.75-1.28.01-2.38.96-3.35,2.83s-1.71,4.22-2.24,7.08c-.51,2.84-.84,5.95-.93,9.32s.03,6.51.42,9.46c.38,2.94,1.09,5.44,2.16,7.47,1.06,2.05,2.35,3.17,3.85,3.39h.5v-.04Z"/>
  <path class="cls-1" d="M200.91,402.21c4.03-.87,6.73-.32,8.16,1.87.81-2.44,2.19-3.94,4.18-4.53.03,0,.06.03.09.03,3.19-1.24,6.13-.96,9.02.91,2.88,1.87,5.13,4.79,6.62,8.86,1.96,5.23,1.8,9.28-.6,12.07,2.94.09,4.85,1.34,5.66,3.89.4,1.31.86,2.34,1.38,3.11.51.77.99,1.27,1.41,1.5.42.23.87.54,1.37.92.5.38.9.87,1.18,1.45.69,1.28.51,2.69-.59,4.2-1.1,1.51-3.29,2.85-6.55,3.92-3.26,1.06-5.8,1.27-7.54.69-1.74-.56-2.79-1.6-3.16-3.08-.04-.27,0-.7.12-1.33.12-.63.26-1.31.41-2.05.17-.74.23-1.79.2-3.15-.03-1.36-.2-2.8-.52-4.34-.13-.55-.5-.9-1.1-1.01-.6-.13-1.46-.06-2.56.17-1.95.65-3.11,1.54-3.46,2.69-.41,1.32.17,3.47,1.8,6.44,1.25,1.88,1.93,2.94,2,3.2.41,1.42.03,2.84-1.18,4.22-1.22,1.38-3.49,2.48-6.82,3.2-3.3.7-5.8.64-7.44-.13-1.64-.77-2.55-1.89-2.76-3.37-.05-.29.03-1.23.2-2.79.19-1.56.27-3.63.26-6.25-.03-2.61-.32-5.35-.84-8.23-.54-2.92-1.25-5.61-2.11-8.05-.86-2.46-1.6-4.39-2.25-5.8s-.99-2.25-1.04-2.51c-.28-1.5.09-2.85,1.07-4.07.99-1.23,2.79-2.07,5.41-2.65h-.03ZM212.55,402.08c-1.66,1.14-2.59,3.57-2.83,7.32-.13,4.71.24,9.21,1.27,13.5.5,2.03,1.14,3.99,1.93,5.87.06-.26.13-.46.18-.63.56-1.75,2.15-3.01,4.76-3.85.42-.19.88-.38,1.38-.56.74-.65,1.11-1.87,1.11-3.65s-.32-3.71-.9-5.78-1.28-4.07-2.07-6.03c-.79-1.95-1.65-3.52-2.56-4.72s-1.65-1.69-2.28-1.48h0Z"/>
  <path class="cls-1" d="M256.66,380.92c3.26-1.7,6.8-1.71,10.8-.05,3.99,1.68,8.06,5.2,12.07,10.76,3.93,5.46,5.94,10.42,5.8,14.91-.13,4.49-2.01,8.19-5.55,10.89-.38.37-.77.68-1.15.91-1.86,1.14-4.13,1.29-6.74.42.38,2.62-1.73,5.29-6.37,7.72-3.08,1.6-5.58,2.23-7.4,1.96-1.83-.27-3.03-1.1-3.62-2.46-.14-.31-.27-1.01-.38-2.12-.12-1.1-.26-2.32-.41-3.65-.17-1.33-.54-3.03-1.14-5.08-.6-2.06-1.38-4.07-2.35-6.05-.95-1.96-2.03-3.81-3.25-5.59-1.22-1.78-2.27-3.15-3.15-4.13-.88-.97-1.69-1.88-2.42-2.71-.73-.83-1.16-1.39-1.29-1.66-.65-1.33-.63-2.74.05-4.21.67-1.48,2.24-2.82,4.7-4.1,3.67-1.91,6.42-2.09,8.4-.37.31-2.46,1.19-4.13,2.7-5.06.22-.13.46-.23.73-.32h0ZM277.57,416.64c.72-.74.22-3.02-1.54-6.81-1.74-3.78-3.92-7.69-6.5-11.75-2.59-4.06-5.17-7.67-7.72-10.83-2.55-3.16-4.18-4.61-4.97-4.31-1.51.97-2.2,2.92-2.14,5.91.04.12.17.59.4,1.42s.41,1.48.54,1.96c.13.47.38,1.22.74,2.24s.7,1.96,1.04,2.79c.33.84.77,1.83,1.32,2.99.55,1.15,1.13,2.3,1.77,3.43.78,1.39,1.56,2.69,2.35,3.88s1.61,2.28,2.44,3.28c.84.99,1.5,1.74,1.98,2.25.49.51,1.54,1.57,3.19,3.17,2.79,1.42,5.18,1.54,7.09.37Z"/>
  <path class="cls-1" d="M287.83,356.11c.5-.49,1.02-.93,1.6-1.36,1.04-.84,2.11-1.57,3.2-2.2s2.27-1.16,3.53-1.64c1.28-.47,2.61-.7,4.01-.73,1.41-.01,2.76.23,4.08.74,2.24.82,3.22,2.74,2.82,5.81-.42,2.56-1.1,4.27-1.95,5.13-.86.87-1.86,1.09-2.97.67-.2-.06-.82-.55-1.86-1.45s-2.09-1.79-3.15-2.66-2.24-1.55-3.54-2.03c-1.29-.49-2.35-.47-3.2.05-.42.32-.82.67-1.2,1.04-.96.95-1.57,2.09-1.88,3.42-.31,1.34-.26,2.6.14,3.78s1.09,2.02,2.07,2.52c.44.22.97.36,1.6.42s1.43.04,2.43-.09,1.77-.26,2.3-.35c.54-.09,1.48-.31,2.83-.67,1.36-.36,2.16-.58,2.43-.63,2.21-.58,4.06-1.06,5.5-1.41,1.45-.35,3.02-.65,4.7-.91,1.69-.26,3.14-.32,4.34-.15,1.2.15,2.42.51,3.65,1.07s2.33,1.37,3.31,2.44c2.59,2.82,3.61,5.87,2.97,9.15-.64,3.26-2.93,7.04-6.96,11.03-.03.03-.05.05-.08.08-.46.46-.96.9-1.51,1.32-5.62,5.29-10.3,7.31-13.69,6.46-.77-.2-1.45-.51-2.06-.95s-1.13-1.07-1.56-1.93c-.42-.86-.63-1.83-.58-2.92.08-1.71.38-3.16.95-4.35.56-1.18,1.19-1.97,1.92-2.38.73-.41,1.45-.55,2.16-.44.26.03.91.4,1.97,1.13,1.06.72,2.18,1.45,3.33,2.16,1.15.72,2.47,1.18,3.95,1.34,1.5.18,2.79-.15,3.89-.97.26-.31.52-.6.79-.87,1.37-1.87,2.01-3.8,1.91-5.77s-.99-2.99-2.59-3.11c-.47-.06-1.27.09-2.41.41-1.13.33-2.62.78-4.48,1.34s-3.11.91-3.78,1.07c-1.57.41-2.8.69-3.71.86-.91.18-2.03.36-3.39.52-1.34.18-2.44.23-3.3.17-.84-.05-1.84-.18-2.97-.38-1.13-.2-2.11-.54-2.96-.99-.84-.45-1.73-1.05-2.65-1.79s-1.82-1.61-2.67-2.64c-5.02-6.07-3.94-11.88,2.66-18.38l.03-.03h.01Z"/>
</svg>