<?xml version="1.0" encoding="UTF-8"?>
<svg id="l" xmlns="http://www.w3.org/2000/svg" viewBox="0 0 785.4 220.49">
  <g>
    <path d="M243.06,21.72c-18.44-3.57-41.55,1.45-68.96,22.8-27.61,21.51-51.31,64.84-34.37,99.96,12.23,25.38,73.01,17.05,102.97-19.08,28.64-34.54,37.2-96.56.36-103.69ZM193.98,147.49c-16.76,6.19-37.75,6.36-44.4-4.4-23.41-37.85,64.76-116.7,99.46-93.26,19.54,13.2.84,77.02-55.05,97.66Z"/>
    <path d="M733.46,152.47c-11.33,2.58-50.08,3.08-41.61-25.57,7.39-25.01-15.08-30.47-25.93-29.07-17.45,2.24-5.98,40.22,29.76,56.56,14.64,6.69,69.66,11.27,80.28-21.63,7.53-23.35-21.63-53.39-76.77-48.04-32.29,3.13-37.98-43.02,3.74-56.79,16.58-5.47,43.56.48,41.08,23.86-2.8,26.49,29.08,36.53,38.45,23.18,12.71-18.1-16.99-52.68-61.53-54.63-62.22-2.72-98.68,75.46-19.25,68.58,30.14-2.61,48.5,7.07,54.73,24.87,5.19,14.84-.21,33.52-22.94,38.7Z"/>
    <path d="M631.71,124.14c-21.4-8.26-38.24,7.02-60.01,15.41-30.08,11.6-14.23-28.63-2.25-46.39,28.82-42.73,44.27-39.56,50.84-54.17,6.62-14.72.45-27.32-13.03-34.95-14.32-8.1-35.07-1.75-25.42,12.39,10.78,15.79,4.77,43.01-17.86,74.82-12.65,17.79-48.5,50.46-76.42,48.91-19-1.06-11.39-26.17,3.38-47,32.26-45.49,43.84-42.1,50.84-54.17,8.1-13.97.45-27.32-13.03-34.95-14.32-8.1-35.07-1.75-25.42,12.39,10.78,15.79,4.83,43.05-17.86,74.82-22.68,31.77-34.87,34.16-36.52,49.09-1.13,10.25,10.74,18.09,22.86,18.09,13.17,0,17.05-11.35,25.23-13.22,17.14-3.91,18.99,13.22,42.32,13.22,13.73,0,23.91-11.2,36.18-13.22,19.76-3.25,20.23,13.7,43.55,13.22,23.33-.48,32.66-26.55,12.6-34.29Z"/>
    <path d="M403.2,157.79c7.47-1.39,24.44-11.71,25.64-26.07,1.63-19.48-13.79-23.58-5.21-42.59,8.58-19.01,42.11-32.44,36.62-51.73-5.49-19.29-33.93-10.34-36.23,10.61-1.65,15.08-1.73,34.1-24.98,61.25-11,12.85-18.57,25.1-18.36,34.95.18,8.62,9.7,15.96,22.52,13.58Z"/>
    <path d="M433.25,10.25c-2.26,3.54-4.27,11.69,7.68,8.54,19.96-5.25,23.01,9.75,28.76,3.98,7.24-7.26,4.24-19.54-9.97-22.3-10.77-2.09-22.19,3.06-26.48,9.77Z"/>
    <path d="M302.96,66.68c-.19.32-.68.1-.57-.26,2.76-8.75,7.64-27.61-2.08-26.95-10.05.69-9.09,13.56-13.52,43.68-4.42,30.04-21.71,54.68-49.32,81.42-22.24,21.54-31.32,51.8-14.72,55.59,19.13,4.36,37.17-36.19,46.21-62.52,19.63-57.16,41.8-109.92,91.43-110.89,43.55-.85,22.15,60.58-16.34,80.92-19.07,10.08-21.19-5-38.5-2.58-24.13,3.37-24.34,28.89-10.22,33.23,13.64,4.19,37.29-8.3,64-33.97,30.41-29.22,56.78-73.49,28.15-97.56-9.49-7.98-29.92-7.86-43.65-1.39-20.12,9.48-36.11,33.53-40.88,41.28Z"/>
    <path d="M75.8,61.07s-17.7,12.23-33.78,32.09c-16.09,19.86-15.57,52.99,2.25,46.39,21.87-8.1,38.61-23.67,60.01-15.41,20.05,7.74,10.78,34.15-12.55,34.63-23.33.48-23.65-15.25-43.61-13.56-8.37.71-12.06,9.01-25.09,10.91-12.53,1.83-22.52-6.09-23-15.78-.75-15,13.84-17.32,36.52-49.09,22.68-31.77,35.56-59.03,24.77-74.82-9.65-14.14,11.1-20.49,25.42-12.39,13.48,7.63,19.39,20.12,13.03,34.95-4.02,9.37-16.73,16.52-23.97,22.08Z"/>
  </g>
  <g>
    <path d="M243.06,21.72c-18.44-3.57-41.55,1.45-68.96,22.8-27.61,21.51-51.31,64.84-34.37,99.96,12.23,25.38,73.01,17.05,102.97-19.08,28.64-34.54,37.2-96.56.36-103.69ZM193.98,147.49c-16.76,6.19-37.75,6.36-44.4-4.4-23.41-37.85,64.76-116.7,99.46-93.26,19.54,13.2.84,77.02-55.05,97.66Z"/>
    <path d="M733.46,152.47c-11.33,2.58-50.08,3.08-41.61-25.57,7.39-25.01-15.08-30.47-25.93-29.07-17.45,2.24-5.98,40.22,29.76,56.56,14.64,6.69,69.66,11.27,80.28-21.63,7.53-23.35-21.63-53.39-76.77-48.04-32.29,3.13-37.98-43.02,3.74-56.79,16.58-5.47,43.56.48,41.08,23.86-2.8,26.49,29.08,36.53,38.45,23.18,12.71-18.1-16.99-52.68-61.53-54.63-62.22-2.72-98.68,75.46-19.25,68.58,30.14-2.61,48.5,7.07,54.73,24.87,5.19,14.84-.21,33.52-22.94,38.7Z"/>
    <path d="M631.71,124.14c-21.4-8.26-38.24,7.02-60.01,15.41-30.08,11.6-14.23-28.63-2.25-46.39,28.82-42.73,44.27-39.56,50.84-54.17,6.62-14.72.45-27.32-13.03-34.95-14.32-8.1-35.07-1.75-25.42,12.39,10.78,15.79,4.77,43.01-17.86,74.82-12.65,17.79-48.5,50.46-76.42,48.91-19-1.06-11.39-26.17,3.38-47,32.26-45.49,43.84-42.1,50.84-54.17,8.1-13.97.45-27.32-13.03-34.95-14.32-8.1-35.07-1.75-25.42,12.39,10.78,15.79,4.83,43.05-17.86,74.82-22.68,31.77-34.87,34.16-36.52,49.09-1.13,10.25,10.74,18.09,22.86,18.09,13.17,0,17.05-11.35,25.23-13.22,17.14-3.91,18.99,13.22,42.32,13.22,13.73,0,23.91-11.2,36.18-13.22,19.76-3.25,20.23,13.7,43.55,13.22,23.33-.48,32.66-26.55,12.6-34.29Z"/>
    <path d="M403.2,157.79c7.47-1.39,24.44-11.71,25.64-26.07,1.63-19.48-13.79-23.58-5.21-42.59,8.58-19.01,42.11-32.44,36.62-51.73-5.49-19.29-33.93-10.34-36.23,10.61-1.65,15.08-1.73,34.1-24.98,61.25-11,12.85-18.57,25.1-18.36,34.95.18,8.62,9.7,15.96,22.52,13.58Z"/>
    <path d="M433.25,10.25c-2.26,3.54-4.27,11.69,7.68,8.54,19.96-5.25,23.01,9.75,28.76,3.98,7.24-7.26,4.24-19.54-9.97-22.3-10.77-2.09-22.19,3.06-26.48,9.77Z"/>
    <path d="M302.96,66.68c-.19.32-.68.1-.57-.26,2.76-8.75,7.64-27.61-2.08-26.95-10.05.69-9.09,13.56-13.52,43.68-4.42,30.04-21.71,54.68-49.32,81.42-22.24,21.54-31.32,51.8-14.72,55.59,19.13,4.36,37.17-36.19,46.21-62.52,19.63-57.16,41.8-109.92,91.43-110.89,43.55-.85,22.15,60.58-16.34,80.92-19.07,10.08-21.19-5-38.5-2.58-24.13,3.37-24.34,28.89-10.22,33.23,13.64,4.19,37.29-8.3,64-33.97,30.41-29.22,56.78-73.49,28.15-97.56-9.49-7.98-29.92-7.86-43.65-1.39-20.12,9.48-36.11,33.53-40.88,41.28Z"/>
    <path d="M75.8,61.07s-17.7,12.23-33.78,32.09c-16.09,19.86-15.57,52.99,2.25,46.39,21.87-8.1,38.61-23.67,60.01-15.41,20.05,7.74,10.78,34.15-12.55,34.63-23.33.48-23.65-15.25-43.61-13.56-8.37.71-12.06,9.01-25.09,10.91-12.53,1.83-22.52-6.09-23-15.78-.75-15,13.84-17.32,36.52-49.09,22.68-31.77,35.56-59.03,24.77-74.82-9.65-14.14,11.1-20.49,25.42-12.39,13.48,7.63,19.39,20.12,13.03,34.95-4.02,9.37-16.73,16.52-23.97,22.08Z"/>
  </g>
</svg>