<?xml version="1.0" encoding="UTF-8"?>
<svg id="Calque_1" data-name="Calque 1" xmlns="http://www.w3.org/2000/svg" viewBox="0 0 254.56 352.09">
  <defs>
    <style>
      .cls-1 {
        fill: #1d1d1b;
      }
    </style>
  </defs>
  <g>
    <path class="cls-1" d="M196.38,166.31c-.33-.42-.97-.19-1.13.37-.57,2.59-1.17,4.01-2.53,6.06-.19.31-.3.74-.18,1.11.33.78,1.14.26,1.45-.35,1.21-1.83,2.11-3.99,2.57-6.26.1-.32.04-.72-.17-.93Z"/>
    <path class="cls-1" d="M191.1,176.48c-.65-.04-.76,1.19-.11,1.24.65.04.76-1.19.11-1.24Z"/>
  </g>
  <g>
    <path class="cls-1" d="M176.98,215.58c-.5.49-.02,1.2.8,1.24,3.74.02,5.88.38,9.06,1.47.48.15,1.11.17,1.58-.07,1.01-.58.07-1.42-.85-1.62-2.84-.98-6.07-1.49-9.34-1.46-.47-.04-1.02.13-1.25.44Z"/>
    <path class="cls-1" d="M192.45,219.26c.1.78,1.85.59,1.76-.19-.1-.78-1.85-.59-1.76.19Z"/>
  </g>
  <path class="cls-1" d="M213.44,175.15c-.14.18-.21.36-.34.42-.31.15-.64.29-.98.34-2.19.31-3.32,1.64-3.56,3.61-.06.46-.11.92-.18,1.38-.03.21-.07.45-.2.61-.12.15-.38.28-.57.28-.15,0-.35-.2-.43-.35-.1-.19-.11-.42-.15-.63-.13-.81-.23-1.62-.4-2.42-.32-1.53-1.33-2.39-2.99-2.59-.35-.04-.71-.07-1.04-.17-.47-.15-.53-.56-.1-.79.32-.18.7-.29,1.07-.38,1.81-.43,2.79-1.51,3.07-3.2.13-.81.37-1.6.6-2.39.05-.18.3-.46.41-.44.22.03.52.21.59.39.16.4.19.85.3,1.27.19.8.36,1.6.62,2.38.41,1.25,1.4,1.9,2.78,2.09.32.04.65.07.95.17.2.07.34.26.55.43Z"/>
  <path class="cls-1" d="M242.18,131.12c-.27.34-.4.68-.65.8-.59.28-1.22.56-1.86.65-4.16.59-6.31,3.12-6.76,6.86-.11.87-.2,1.75-.34,2.62-.07.4-.13.86-.38,1.17-.24.28-.72.53-1.09.53-.28,0-.66-.37-.81-.66-.19-.36-.21-.79-.28-1.2-.26-1.53-.45-3.08-.76-4.6-.6-2.9-2.52-4.54-5.67-4.93-.67-.08-1.35-.13-1.98-.33-.9-.28-1.01-1.06-.2-1.5.61-.34,1.33-.56,2.03-.72,3.44-.82,5.31-2.86,5.84-6.08.25-1.53.71-3.03,1.15-4.53.1-.34.57-.87.78-.83.42.07.98.39,1.12.74.31.76.37,1.61.57,2.41.37,1.51.68,3.04,1.17,4.52.78,2.38,2.66,3.62,5.29,3.96.61.08,1.24.12,1.81.32.37.13.65.5,1.04.81Z"/>
  <path class="cls-1" d="M33.67,165c-.27.34-.4.68-.65.8-.59.28-1.22.56-1.86.65-4.16.59-6.31,3.12-6.76,6.86-.11.87-.2,1.75-.34,2.62-.07.4-.13.86-.38,1.17-.24.28-.72.53-1.09.53-.28,0-.66-.37-.81-.66-.19-.36-.21-.79-.28-1.2-.26-1.53-.45-3.08-.76-4.6-.6-2.9-2.52-4.54-5.67-4.93-.67-.08-1.35-.13-1.98-.33-.9-.28-1.01-1.06-.2-1.5.61-.34,1.33-.56,2.03-.72,3.44-.82,5.31-2.86,5.84-6.08.25-1.53.71-3.03,1.15-4.53.1-.34.57-.87.78-.83.42.07.98.39,1.12.74.31.76.37,1.61.57,2.41.37,1.51.68,3.04,1.17,4.52.78,2.38,2.66,3.62,5.29,3.96.61.08,1.24.12,1.81.32.37.13.65.5,1.04.81Z"/>
  <path class="cls-1" d="M59.2,96.5c-.23.16-.38.34-.58.41-.35.13-.73.21-1.1.3-1.68.44-2.52,1.51-2.74,3.06-.06.43-.1.87-.16,1.3-.03.18-.07.38-.18.54-.26.37-.72.34-.89-.07-.1-.25-.1-.53-.13-.8-.09-.95-.23-1.89-.71-2.76-.51-.93-1.35-1.41-2.44-1.54-.15-.02-.3,0-.44-.03-.29-.04-.63-.09-.66-.43-.03-.34.28-.45.56-.55.28-.09.56-.17.84-.24,1.23-.35,2.03-1.07,2.35-2.23.19-.71.35-1.43.53-2.15.05-.21.08-.44.19-.63.09-.15.28-.33.43-.33.15,0,.38.18.43.32.14.41.21.85.31,1.27.14.61.22,1.24.42,1.83.4,1.2,1.26,1.93,2.67,2.05.29.03.59.09.85.2.16.07.26.26.45.46Z"/>
  <path class="cls-1" d="M200.39,230.56c-.62-.27-.72-.61-.78-1.01-.1-.67-.19-1.35-.34-2.02-.35-1.55-1.29-2.3-2.98-2.46-.34-.03-.8.06-.84-.4-.05-.47.41-.53.78-.62.09-.02.17-.04.26-.06,1.57-.32,2.44-1.24,2.74-2.67.14-.64.3-1.28.49-1.91.08-.26.28-.49.43-.74.58.2.62.59.71.96.18.8.36,1.6.57,2.39.31,1.2,1.16,1.86,2.49,2,.23.02.49.02.69.11.19.08.43.27.44.43.01.16-.19.38-.36.48-.19.11-.45.13-.67.18-1.86.41-2.72,1.25-3.03,2.99-.07.38-.06.77-.15,1.13-.1.38-.28.74-.45,1.18Z"/>
  <path class="cls-1" d="M43.02,206.08c.22-.11.43-.25.66-.31.96-.26,1.48-.85,1.63-1.74.06-.35.16-.69.29-1.03.06-.16.2-.3.42-.6.16.38.28.61.35.86.07.26.09.54.14.81.18.99.74,1.64,1.87,1.79.16.02.32.11.49.17,0,.45-.36.48-.66.55-.79.19-1.42.56-1.68,1.31-.12.33-.13.7-.22,1.04-.06.24-.16.48-.25.72-.07,0-.15.01-.22.02-.09-.17-.23-.33-.28-.51-.11-.42-.15-.86-.26-1.28-.2-.76-.7-1.24-1.56-1.39-.22-.04-.44-.11-.66-.17-.02-.07-.04-.14-.07-.21Z"/>
  <path class="cls-1" d="M64.85,82.02c-.07-.21-.16-.39-.2-.59-.07-.35-.09-.7-.18-1.05-.18-.66-.61-1.1-1.37-1.22-.21-.03-.41-.13-.62-.2,0-.06-.02-.12-.03-.19.22-.1.42-.22.65-.29.79-.23,1.21-.72,1.37-1.46.1-.46.26-.91.4-1.37.06,0,.13,0,.19-.01.1.14.24.27.29.42.12.42.19.85.3,1.27.17.64.59,1.04,1.32,1.17.24.04.47.16.7.24,0,.06,0,.12.01.18-.19.09-.37.23-.57.27-1.17.24-1.63.99-1.73,2-.03.3.05.67-.52.81Z"/>
  <g>
    <path class="cls-1" d="M177.27,220.82c-10.1.14-14.09,3.76-17.62,6.96-3.25,2.95-6.08,5.5-13.03,5.03-8.31-.57-10.25-9.83-10.41-17.5-.06-2.52.07-4.85.22-6.58,4.72,3.42,10.06,5.37,15.91,5.75.72.05,1.41.07,2.1.07,15.92,0,23.25-12.34,26.09-17.11,4.07-6.85,4.89-21.11-3.1-27.84-2.22-1.88-4.23-3.33-6.26-4.53,4.33-1.44,8.61-3.56,12.45-6.19,9.77-6.66,12.67-21.83,8.64-30.43-3.71-7.93-9.34-19.89-29.16-19.57-4.28.07-8.29,1.06-11.96,2.91.46-8.64-1.79-15.67-6.71-20.9-8.63-9.18-21.98-9.49-24.6-9.46-21.19.24-30.84,15.22-30.84,29.05,0,.42.02.81.05,1.18-2.24-.7-4.66-1.15-7.22-1.33-21.02-1.35-29.11,12.49-32.08,20.88-3.05,8.66-.09,24.01,16.04,30.99,3.64,1.58,7.65,2.7,11.92,3.38-10.89,8.88-14.14,20.44-8.64,31.14,5.45,10.59,18.46,15.62,29.35,16.04-1.22,1.33-2.38,2.68-3.45,4.04-2.58,3.27-4.34,6.24-5.25,8.82-2.13,6.08-2.07,14.86-1.75,20.36-2.62-7.47-9.29-22.78-20.15-23.87-7.31-.73-13.63.92-17.73,4.63-.06.04-.12.09-.16.13-.11.09-.23.2-.31.29-.22.21-.43.4-.61.61-2.6,2.81-3.97,6.4-3.97,10.37,0,.49.02.99.07,1.47.17,1.99.69,4,1.53,5.97.46,1.1,1.05,2.25,1.77,3.42v.1s.12.09.12.09c4.99,8.03,14.81,15.12,26.29,18.97,2.9.97,5.6,1.39,8.07,1.39,6.01,0,10.67-2.46,13.41-5.38,3.47-3.68,4.57-8.55,2.89-12.71-4.82-11.92,2.28-25.74,5.58-31.16l.1-.1v-.07c2.16-3.53,4.13-6.29,7.17-9.08.01-.01.84-.79.84-.79.57-.53,1.5-1.28,2.17-1.81.48-.34.74-.56.81-.63.06-.05.13-.09.19-.14.08-.07.17-.13.27-.19.07-.05.15-.1.22-.16.69-.52,1.23-.96,1.72-1.4.05-.04,1.16-1.08,1.67-1.63,2.42-2.54,4.27-5.42,5.53-8.59.53,1.06,1.43,2.71,2.78,4.62l-.05.17c-.6,2.02-1.21,4.51-1.87,7.63-1.22,5.7-2.66,22.63,5.14,32.39,3.67,4.59,8.9,6.95,15.54,7.03,6.27.06,10.88-.67,14.23-1.76-1.44,1.6-2.29,3.95-2.47,6.89-.31,5.31,1.84,12.24,5.98,14.63,2.57,1.48,5.5,2.24,8.49,2.24,1.86,0,3.74-.29,5.56-.89,5.08-1.66,9.12-5.37,11.37-10.44,2.86-6.47,5.06-22.47-.77-31.3-2.71-4.11-6.75-6.15-12.12-6.09ZM163.1,109.83c.27,0,.53,0,.79,0,18.58,0,23.93,11.43,27.48,19.02,3.87,8.26,1.08,22.83-8.32,29.23h0c-5.02,3.44-9.81,5.34-13.01,6.34-.13-.07-.27-.14-.41-.22-.15-.08-.29-.16-.44-.24-.17-.09-.35-.18-.53-.27-.14-.07-.29-.14-.43-.21-.19-.09-.38-.18-.57-.27-.14-.06-.27-.13-.41-.19-.21-.1-.43-.19-.65-.28-.12-.05-.24-.1-.36-.15-.26-.11-.53-.21-.79-.31-.08-.03-.16-.06-.24-.1-.35-.13-.71-.26-1.07-.39-.06-.02-.11-.04-.17-.06-.31-.1-.61-.21-.93-.31-.12-.04-.24-.07-.36-.11-.25-.08-.51-.16-.77-.23-.15-.04-.31-.09-.46-.13-.23-.07-.47-.13-.71-.19-.17-.04-.35-.09-.52-.13-.23-.06-.45-.11-.69-.17-.19-.05-.38-.09-.58-.13-.22-.05-.45-.1-.68-.15-.2-.04-.41-.08-.61-.13-.23-.05-.46-.09-.69-.14-.21-.04-.43-.08-.65-.12-.23-.04-.47-.09-.7-.13-.23-.04-.46-.08-.69-.12-.24-.04-.47-.08-.71-.12-.24-.04-.49-.07-.73-.11-.24-.04-.48-.07-.73-.11-.25-.04-.51-.07-.77-.1-.16-.02-.31-.04-.47-.06.69-2.45,1.04-5,1.04-7.6,0-4.32-.97-8.48-2.85-12.37,7.98-6.18,14.04-4.89,14.09-4.87.26.06.52-.1.58-.36.06-.26-.1-.52-.36-.58-.27-.06-6.47-1.42-14.76,4.93-2.07-3.97-5.11-7.55-8.83-10.37-.77-.58-1.56-1.12-2.35-1.62.03-.05.06-.11.09-.16.05-.09.1-.19.16-.28.08-.14.16-.28.24-.42.06-.11.13-.22.19-.33.08-.14.17-.29.26-.43.07-.12.15-.24.23-.37.09-.14.18-.29.28-.44.08-.13.17-.26.26-.4.1-.15.2-.3.3-.45.09-.14.19-.28.29-.42.11-.15.22-.3.33-.45.11-.15.21-.29.32-.44.11-.15.23-.31.35-.46.11-.15.23-.3.35-.44.13-.16.26-.31.39-.47.12-.15.25-.3.37-.45.14-.16.28-.32.42-.48.13-.15.26-.3.4-.44.15-.16.3-.32.46-.48.14-.15.28-.29.42-.44.16-.16.33-.32.5-.48.15-.14.29-.28.45-.42.17-.16.36-.32.54-.48.15-.14.31-.27.47-.41.19-.16.39-.32.59-.48.16-.13.31-.26.48-.38.22-.16.44-.32.66-.48.16-.11.31-.23.47-.34.26-.18.52-.34.79-.51.14-.09.27-.18.41-.27.41-.25.83-.5,1.26-.73,3.73-2.03,7.86-3.1,12.27-3.17ZM119.83,82.38c6.96-.1,17.41,2.27,23.89,9.16,4.84,5.14,7,12.12,6.43,20.75-.23.13-.44.26-.67.39-.17.1-.34.2-.5.3-.27.17-.54.35-.8.52-.14.09-.29.18-.42.28-.32.23-.64.46-.95.69-.07.05-.14.1-.21.15-.37.29-.74.58-1.09.88-.12.1-.22.2-.34.3-.23.2-.46.4-.69.61-.14.13-.27.26-.4.39-.19.18-.38.36-.56.54-.14.14-.27.28-.4.42-.17.17-.34.35-.5.52-.13.14-.26.29-.39.43-.15.17-.3.34-.45.51-.13.15-.25.29-.37.44-.14.17-.27.33-.41.49-.12.15-.23.3-.35.44-.12.16-.25.32-.37.48-.11.15-.22.3-.33.44-.11.16-.22.31-.33.46-.1.15-.2.29-.3.44-.1.15-.2.3-.3.44-.1.14-.19.29-.28.43-.09.14-.18.28-.26.41-.09.14-.18.28-.26.42-.08.13-.15.25-.22.37-.08.14-.17.28-.25.42-.06.11-.12.21-.18.31-.08.15-.16.29-.24.43-.01.03-.03.06-.05.08-5.28-3.11-11.38-4.75-17.67-4.75-2.57-8.05,1.91-12.78,2.1-12.98.19-.19.18-.49,0-.68-.19-.19-.49-.18-.68,0-.21.21-4.98,5.22-2.4,13.69-4.95.13-9.85,1.28-14.23,3.38-.07-.14-.16-.32-.26-.52-.02-.03-.04-.07-.05-.1-.08-.15-.17-.31-.27-.49-.04-.07-.08-.13-.12-.2-.09-.16-.19-.33-.3-.51-.05-.09-.1-.17-.16-.26-.11-.18-.24-.36-.36-.55-.06-.1-.13-.19-.19-.29-.14-.21-.3-.42-.47-.64-.07-.09-.12-.17-.19-.26-.47-.62-1.02-1.27-1.65-1.94-.09-.09-.19-.19-.28-.28-.23-.24-.47-.48-.72-.72-.13-.12-.26-.24-.4-.36-.23-.21-.47-.43-.72-.64-.16-.13-.32-.26-.48-.39-.25-.2-.51-.4-.78-.6-.18-.13-.35-.26-.53-.39-.28-.2-.58-.39-.88-.59-.19-.12-.37-.24-.56-.36-.34-.21-.7-.41-1.07-.6-.17-.09-.34-.19-.51-.28-.55-.28-1.12-.56-1.72-.81-.03-.01-.06-.02-.09-.03-.52-.22-1.06-.43-1.63-.63-.05-.46-.08-.95-.08-1.49,0-13.37,9.35-27.86,29.89-28.08ZM50.64,131.51c2.74-7.75,10.01-20.33,28.34-20.33.89,0,1.82.03,2.77.09,2.75.18,5.33.69,7.68,1.49.63.21,1.23.45,1.81.69.19.08.37.17.56.26.38.17.75.34,1.11.53.21.11.41.22.61.33.32.17.63.35.93.53.2.12.39.24.58.37.28.18.56.37.83.55.18.13.36.25.53.38.26.19.51.39.76.59.15.12.31.25.46.37.26.22.5.43.74.65.12.11.24.21.35.32.31.3.61.6.89.89.02.03.05.05.08.08.31.32.59.65.86.96.08.1.15.19.23.28.18.22.35.43.51.64.09.11.17.22.25.33.14.18.27.37.39.54.08.11.15.21.22.32.11.17.22.33.32.49.06.09.12.19.18.28.1.16.19.31.27.45.04.07.09.15.13.22.09.15.16.29.23.43.02.04.05.09.07.13.09.17.16.32.22.44-1.38.71-2.71,1.51-3.96,2.4-4.17,2.93-7.52,6.77-9.76,11.1-8.53-6.56-17.22-3.69-17.31-3.66-.25.09-.38.36-.3.61s.37.38.61.3c.08-.03,8.41-2.74,16.56,3.64-1.85,3.85-2.8,7.97-2.8,12.25,0,2.74.39,5.44,1.17,8.03-.32.13-.64.3-.97.44-.45.2-.9.4-1.34.61-.12.06-.24.13-.36.19-1.82.92-3.57,1.99-5.24,3.19-.39.28-.79.55-1.17.84-4.5-.65-8.7-1.81-12.51-3.46-15.56-6.74-18.44-21.48-15.52-29.79ZM58.06,258.14c.17.13.34.26.51.39-.17-.13-.34-.26-.51-.39ZM59.65,259.35c.08.06.17.12.26.19-.09-.06-.17-.12-.26-.19ZM103.9,219.8v.07c-3.4,5.6-10.57,19.68-5.61,31.94,1.54,3.81.51,8.29-2.7,11.7-2.07,2.2-5.3,4.12-9.44,4.81.4-.11.8-.24,1.18-.39,0,0-2.16-10.99-14.06-25.89-6.58-8.25-16.18-16.35-21.29-15.59,3.92-2.82,9.42-4.03,15.73-3.39,13.44,1.35,20.52,26.91,20.59,27.17l.94-.17v-.11c-.38-3.65-1.38-16.18,1.37-24.01.87-2.48,2.58-5.35,5.1-8.56.24-.31.51-.61.76-.92,3.26-.48,6.77,2.32,7.64,3.07-.04.07-.08.13-.12.2l-.1.1ZM119.23,203.63c-.49.53-1.61,1.57-1.61,1.58-.46.41-.98.84-1.64,1.34l-.19.13c-.12.08-.23.16-.34.25-.05.04-.11.08-.17.12h0s-.04.03-.09.07c-4.05,3.14-12.61,4.7-15.59,4.7-.03,0-.06,0-.08,0-10.81-.11-24.15-4.97-29.6-15.56-8.04-15.64,5.07-27.45,9.33-30.73,2.11-1.61,4.4-3.04,6.75-4.19.2-.1.41-.19.62-.28.48-.23.96-.44,1.44-.64.66,1.93,1.68,3.68,2.66,5.37l.15.24h0c1.96,3.27,4.79,6.34,8.42,9.15-7.88,5.08-7.96,13.53-7.96,13.61,0,.26.22.48.48.48h0c.27,0,.48-.22.48-.48,0-.08.08-8.23,7.81-13,10.31,7.56,22.75,6.14,25.99,5.6.39,3.19.45,7.82-1.2,12.74l-.06.17.07.17s0,0,0,0c-1.21,3.39-3.1,6.47-5.66,9.16ZM125.97,194.31c1.78-5.3,1.71-10.05,1.31-13.22,5.54-1.21,10.64-3.74,14.84-7.36,8.9,4.06,10.58,11.63,10.6,11.71.05.23.25.38.47.38.03,0,.06,0,.1,0,.26-.05.43-.31.37-.57-.07-.33-1.75-7.91-10.77-12.21,3.37-3.11,6.02-6.87,7.66-10.95.28-.67.53-1.37.75-2.09.22.03.44.06.66.09.2.03.41.05.61.08.29.04.58.08.87.13.19.03.39.06.58.09.29.04.56.09.84.14.19.03.37.06.56.09.27.05.54.1.8.15.18.03.36.07.54.1.26.05.51.1.76.15.18.04.36.07.53.11.25.05.49.11.74.16.17.04.34.08.51.12.24.06.48.12.72.18.16.04.33.08.49.12.23.06.46.12.68.19.16.04.32.09.48.13.22.06.44.13.66.2.15.05.31.09.46.14.22.07.43.14.64.21.15.05.3.1.45.15.21.07.42.15.62.23.14.05.29.1.43.16.21.08.42.16.62.25.13.05.27.1.4.16.23.09.45.19.67.29.11.05.21.09.32.14.26.12.52.24.78.36.06.03.13.06.19.09.64.31,1.26.64,1.88.98h.02c2.28,1.28,4.51,2.86,7.01,4.97,5.08,4.28,8.74,16.78,2.89,26.61-3.14,5.29-10.51,17.69-27.29,16.58-5.94-.39-11.35-2.42-16.1-6.06-.05-.04-.1-.07-.15-.12l-5.78-5.76c-.43-.55-.84-1.1-1.21-1.62l-.03-.04c-1.83-2.57-2.86-4.7-3.21-5.48.02-.04.03-.09.05-.13ZM189.28,257.82c-2.13,4.82-5.97,8.34-10.79,9.92-4.49,1.46-9.33,1-13.27-1.27-3.37-1.95-5.84-8.11-5.51-13.75.13-2.28.87-6.32,4.27-7.78,7.65-3.29,6.75-8.71,6.7-8.94l-.95.12s.12,2.46-2.26,4.96c-2.45,2.58-8,5.64-20.48,5.49-6.33-.07-11.31-2.31-14.8-6.67-7.34-9.17-6.22-25.01-5.06-31.05,2.81,4.96,7.01,7.46,8.16,8.08.42,7.7,2.81,16.25,11.24,16.82,7.37.51,10.47-2.3,13.74-5.27,3.56-3.23,7.25-6.58,16.98-6.71.08,0,.16,0,.25,0,4.86,0,8.58,1.9,11.06,5.66,5.64,8.54,3.49,24.08.7,30.38Z"/>
    <path class="cls-1" d="M110.4,220.78c-.28.02-.43.22-.6.39-.5.49-.98,1-1.41,1.54-1.26,1.58-2.29,3.3-3.11,5.09-.52,1.13-.97,2.3-1.32,3.48-.07.16-.07.35.01.51.24.54,1.19.57,1.4.04,1.37-4.41,3.29-6.96,5.71-10.37.13-.34-.27-.73-.68-.68Z"/>
    <path class="cls-1" d="M114.51,217.69c-.8-.31-1.28.74-.48,1.05.8.31,1.28-.74.48-1.05Z"/>
  </g>
  <g>
    <path class="cls-1" d="M4.91,50.16c.44-.45.92-.86,1.43-1.23.94-.76,1.89-1.4,2.86-1.93.96-.53,1.99-.96,3.09-1.3,1.1-.34,2.21-.46,3.33-.37,1.12.09,2.17.41,3.13.96,1.65.89,2.13,2.49,1.55,4.79-.54,1.91-1.13,3.16-1.82,3.76-.69.6-1.46.72-2.31.35-.15-.06-.62-.46-1.39-1.19-.77-.74-1.56-1.46-2.36-2.17-.8-.71-1.72-1.26-2.74-1.65-1.03-.38-1.91-.34-2.65.14-.37.29-.72.6-1.05.93-.84.85-1.4,1.85-1.67,2.99-.27,1.14-.23,2.18.13,3.1.35.93.94,1.54,1.75,1.84.36.13.8.2,1.3.2.5,0,1.15-.07,1.93-.23.79-.16,1.39-.28,1.81-.37.42-.09,1.15-.28,2.21-.56,1.05-.28,1.68-.42,1.88-.46,1.72-.4,3.12-.66,4.22-.82,1.1-.16,2.28-.24,3.54-.24,1.26,0,2.31.15,3.18.44.86.29,1.72.73,2.56,1.33.85.6,1.59,1.37,2.25,2.29,1.72,2.43,2.39,4.7,2.05,6.8-.34,2.11-1.69,4.26-4.01,6.6-.01.01-.03.03-.04.04-.26.27-.56.53-.88.77-3.2,3.17-5.96,4.61-8.5,4.14-.57-.11-1.1-.3-1.61-.58-.51-.27-.99-.7-1.45-1.28-.45-.58-.76-1.27-.9-2.05-.22-1.24-.19-2.31.06-3.2.25-.88.63-1.48,1.12-1.8.49-.31,1-.43,1.53-.34.19.02.7.29,1.54.82.84.53,1.71,1.07,2.6,1.62.89.55,1.87.92,2.92,1.13,1.05.21,1.91.08,2.59-.39.14-.19.3-.36.46-.53.77-1.15,1.07-2.39.9-3.76-.17-1.37-.81-2.2-1.94-2.48-.33-.09-.89-.09-1.68.03-.79.12-1.83.32-3.13.61-1.3.29-2.19.5-2.66.61-1.11.25-2,.45-2.65.58-.65.13-1.47.28-2.46.45-.98.17-1.8.27-2.45.28-.65.01-1.41-.01-2.29-.07-.88-.05-1.67-.2-2.37-.46-.7-.25-1.46-.6-2.26-1.05-.81-.45-1.6-1.01-2.39-1.68-4.65-3.9-4.26-9.3,1.72-15.37,0,0,.02-.02.03-.03Z"/>
    <path class="cls-1" d="M47.17,39.25c2.53,4.33,3.85,8.12,4.08,11.33.23,3.22-.63,5.53-2.65,7.07-.05.03-.11.08-.18.12-.2.14-.43.26-.68.36-1.08.69-2.13,1.23-3.16,1.62-1.03.39-2.17.6-3.45.63-1.28.03-2.57-.19-3.87-.68-1.31-.49-2.76-1.33-4.35-2.54-1.59-1.21-3.23-2.78-4.89-4.75-.02-.02-.04-.05-.06-.07-.02-.02-.04-.05-.06-.07-1.46-1.76-2.95-3.3-4.49-4.62-1.54-1.32-2.83-2.31-3.85-2.98-1.02-.67-1.61-1.09-1.77-1.27-.77-.86-1-1.97-.66-3.32.34-1.35,1.51-2.85,3.52-4.43,2.03-1.6,3.78-2.38,5.18-2.39,1.4-.01,2.42.47,3.07,1.42.14.19.34.71.6,1.54.26.83.56,1.74.88,2.71.32.98.87,2.21,1.64,3.71.78,1.49,1.67,2.91,2.68,4.27.02.02.04.05.05.07.02.02.04.05.05.07,2.43,3.36,4.87,5.91,7.25,7.7,2.38,1.79,4.16,2.39,5.39,1.79.02-.01.05-.04.1-.07.05-.03.09-.06.13-.09,1.88-1.4,2.63-3.53,2.33-6.5-.31-2.96-1.67-6.51-4.18-10.61-.23-.38-.47-.76-.7-1.14-1.24-2.02-2.51-4.06-3.8-6.12-.47-.62-.99-1.14-1.59-1.55-.6-.41-1.13-.71-1.6-.89-.47-.18-.94-.4-1.4-.67-.46-.27-.8-.58-1.03-.93-.33-.53-.43-1.06-.27-1.62.16-.55.75-1.16,1.8-1.8,1.91-1.17,3.18-1.08,3.77.18.23.49.35,1.12.38,1.89.03.77.13,1.63.31,2.56.18.93.54,1.86,1.07,2.78,0,.01.02.03.02.04.02,0,.04.01.05.02,0,0-.02.01-.03.02,1.1,1.83,2.21,3.66,3.31,5.49.31.47.53.82.67,1.05.01.03.02.06.02.09.11.19.23.38.34.57Z"/>
    <path class="cls-1" d="M65.99,43.35c-.18-.18-.48-.61-.93-1.3-.45-.69-.94-1.45-1.5-2.29-.56-.84-1.39-1.9-2.52-3.18-1.13-1.28-2.41-2.53-3.85-3.73-2.36-1.94-5.02-3.65-8.01-5.1.09.22.19.43.31.64,2.46,4.54,4.92,9.08,7.37,13.61.53.93,1.13,1.69,1.81,2.29.68.6,1.28,1.1,1.82,1.53.53.42.93.87,1.18,1.34.29.55.37,1.08.26,1.6-.11.51-.61,1-1.47,1.47-1.56.86-2.65.67-3.27-.61-.21-.4-.34-.88-.42-1.45-.08-.57-.12-1.1-.13-1.59-.01-.49-.11-1.11-.31-1.87-.19-.76-.5-1.51-.91-2.27-.01-.03-.03-.05-.04-.08-2.37-4.28-4.75-8.56-7.12-12.84-.01-.03-.03-.05-.04-.08-.32-.57-.69-1.09-1.12-1.57-.43-.47-.78-.81-1.06-1.01-.27-.2-.67-.46-1.19-.79-.52-.32-.84-.53-.98-.62-.23-.11-.39-.2-.5-.28-.4-.25-.72-.53-.95-.84-.23-.31-.37-.67-.4-1.08-.03-.41.06-.83.27-1.26.21-.43.61-.9,1.19-1.41.58-.51,1.34-1.02,2.29-1.52,2.19-1.16,4.15-1.69,5.84-1.61,1.69.08,3.02.55,4,1.37.19.17.63.74,1.32,1.72.69.97,1.72,2.24,3.08,3.82,1.36,1.58,2.96,3.21,4.77,4.91,2.41,2.22,4.89,4.27,7.43,6.19-.1-.31-.21-.6-.32-.88-.01-.03-.02-.05-.03-.08-1.83-4.54-3.66-9.08-5.48-13.62-.01-.03-.02-.05-.03-.08-.32-.8-.73-1.51-1.22-2.12-.49-.62-.94-1.08-1.36-1.39-.41-.31-.83-.66-1.27-1.04-.43-.38-.75-.77-.94-1.17-.29-.56-.3-1.1-.05-1.64.26-.54.95-1.04,2.1-1.5,1.12-.44,1.95-.55,2.47-.34.53.21.91.63,1.13,1.24.19.5.24,1.09.15,1.77-.09.68-.14,1.49-.15,2.41-.01.93.16,1.89.51,2.91,1.88,4.81,3.76,9.61,5.64,14.42.43.98.94,1.81,1.52,2.49.59.68,1.12,1.26,1.6,1.75.48.48.81.98,1,1.48.27.72.27,1.31,0,1.76-.4.91-1.41,1.68-3.03,2.35-1.84.76-3.47,1.04-4.91.82-1.44-.22-2.62-.76-3.54-1.64Z"/>
    <path class="cls-1" d="M85.26,40.01c-1.9.6-3.38.69-4.5.21-1.12-.47-1.87-1.24-2.25-2.34-.08-.22-.16-.75-.22-1.6-.06-.84-.13-1.77-.2-2.78-.07-1.01-.27-2.33-.58-3.94-.31-1.62-.74-3.23-1.3-4.82-.56-1.62-1.23-3.17-2-4.63-.78-1.46-1.47-2.59-2.09-3.42-.62-.82-1.18-1.57-1.71-2.25-.52-.68-.83-1.13-.91-1.35-.85-2.17.96-4.19,5.52-5.76,1.07-.37,2.09-.66,3.08-.89,2.06-.61,4.13-1.18,6.2-1.7.59-.18,1.46-.44,2.65-.77,1.18-.33,2.1-.56,2.77-.73.67-.16,1.45-.32,2.34-.48.89-.15,1.68-.21,2.34-.17.66.04,1.27.16,1.8.36.74.29,1.25.73,1.51,1.31.26.59.32,1.59.18,2.99-.47,3.73-1.51,5.23-3.27,4.56-.57-.22-1.15-.59-1.76-1.11-.61-.52-1.18-1.06-1.7-1.61-.52-.55-1.07-1.09-1.64-1.62-.57-.52-1.21-.92-1.91-1.2-.7-.27-1.44-.36-2.21-.26-.97.24-1.93.49-2.89.75-.35.31-.6.72-.77,1.25-.17.52-.23,1.2-.2,2.04.04.84.11,1.65.23,2.43.11.78.32,1.8.61,3.04.3,1.24.57,2.3.8,3.17.24.87.57,2.05,1,3.53.05.17.13.47.26.9.33-.84.78-1.58,1.34-2.22,0-.01,0-.03-.01-.04,1.05-1.3,2.09-2.26,3.1-2.87,1.01-.62,1.85-.95,2.53-1.02.92-.12,1.55.56,1.87,2.04.19.84.2,1.48.04,1.93-.16.44-.43.7-.82.76-.19.04-.58-.05-1.18-.27-.59-.22-1.25-.39-1.95-.49-.71-.1-1.34.02-1.89.35-1.2.9-1.98,2.21-2.33,3.91.59,1.59,1.23,3.07,1.9,4.45.67,1.38,1.23,2.47,1.67,3.25.44.79.69,1.3.75,1.52.33,1.11.17,2.17-.45,3.2-.61,1.02-1.86,1.8-3.73,2.39Z"/>
    <path class="cls-1" d="M124.23,24.11c1.42-1.04,2.67.26,3.61,3.89.32,1.37.4,2.36.27,2.98-.14.62-.48,1.14-1.03,1.55-.39.3-.85.52-1.36.67-.52.15-1.14.26-1.86.32-.72.06-1.35.1-1.89.1-.54,0-1.3,0-2.29.01-.99,0-1.73.02-2.22.02-1.71.12-3.41.27-5.11.45-.79.14-1.63.26-2.53.34-3.81.37-5.89-.49-6.25-2.82-.04-.23-.02-.77.07-1.61.09-.84.18-1.77.3-2.77.11-1.01.16-2.34.14-3.98-.02-1.65-.15-3.32-.41-5.02-.26-1.67-.63-3.29-1.12-4.87-.5-1.57-.97-2.83-1.43-3.76-.46-.93-.88-1.77-1.27-2.52-.39-.75-.61-1.25-.65-1.52-.21-1.14.14-2.19,1.09-3.15.95-.96,2.66-1.63,5.11-1.94,2.42-.3,4.22-.08,5.35.61,1.14.7,1.73,1.63,1.81,2.78.02.24-.08.94-.31,2.13-.22,1.18-.4,2.78-.53,4.78-.13,2.01-.07,4.15.15,6.42.15,1.51.27,2.71.37,3.63.1.91.24,2,.42,3.27.18,1.26.35,2.28.52,3.05.17.77.37,1.55.61,2.33.24.78.5,1.4.79,1.85.29.45.61.77.96.94.81-.07,1.62-.13,2.42-.18.63-.13,1.18-.43,1.66-.9.48-.47.9-1.02,1.24-1.66.34-.64.67-1.29.98-1.95.31-.66.67-1.33,1.09-1.99.41-.66.85-1.16,1.3-1.5Z"/>
    <path class="cls-1" d="M154.45,18.69c-.41,2.31-1.01,4.35-1.77,6.15-.76,1.79-1.6,3.25-2.5,4.39-.91,1.13-1.91,2.06-3.01,2.78-1.1.73-2.22,1.23-3.35,1.51-1.14.28-2.3.4-3.52.34-.24,0-.44,0-.62-.01-.18-.02-.38-.05-.61-.1-1.22-.16-2.35-.48-3.41-.96-1.05-.48-2.05-1.17-3-2.09-.95-.91-1.77-2-2.47-3.28-.7-1.27-1.25-2.86-1.67-4.76-.41-1.9-.63-4.02-.62-6.36.01-2.76.39-5.24,1.19-7.44.8-2.2,1.89-3.96,3.29-5.27,1.4-1.31,2.99-2.27,4.75-2.88,1.77-.61,3.65-.83,5.6-.66,1.95.18,3.77.73,5.41,1.65,1.65.92,3.04,2.15,4.19,3.69,1.14,1.54,1.9,3.46,2.29,5.77.39,2.31.32,4.82-.17,7.53ZM139.82,32.3c.08,0,.19.02.32.03.94-.09,1.83-.89,2.7-2.41.87-1.52,1.61-3.38,2.2-5.59.6-2.21,1.06-4.62,1.36-7.23.3-2.61.4-5.04.28-7.29-.12-2.25-.53-4.16-1.24-5.71-.71-1.55-1.66-2.39-2.84-2.49-1.13-.1-2.18.55-3.1,1.96-.93,1.4-1.64,3.21-2.15,5.4-.51,2.2-.83,4.6-1,7.22-.17,2.62-.16,5.08-.01,7.37.15,2.3.51,4.26,1.06,5.89.55,1.63,1.25,2.57,2.12,2.82.12.01.22.02.3.03Z"/>
    <path class="cls-1" d="M155.76,5.43c-.03-.4-.02-.79.02-1.19.04-.4.21-.75.51-1.06.3-.31.68-.57,1.13-.77.46-.21,1.08-.32,1.87-.34.79-.02,1.69.07,2.7.28,2.43.5,4.2,1.33,5.32,2.43,1.11,1.11,1.66,2.26,1.68,3.46-.02.18-.14.7-.36,1.56s-.46,1.75-.72,2.66c-.26.91-.48,2.2-.69,3.86-.2,1.66-.29,3.37-.27,5.12.01,1.78.14,3.62.36,5.51.23,1.89.4,3.21.55,3.94.15.74.36,1.79.63,3.17,2.99-5.73,6.13-11.4,9.42-17-.11-1-.26-2.01-.46-3.02-.2-1.01-.36-1.81-.5-2.39-.13-.58-.19-1-.16-1.24,0-.4.05-.8.16-1.18.1-.39.33-.71.66-.98.34-.27.75-.48,1.23-.62.48-.14,1.11-.18,1.89-.1.78.08,1.66.29,2.64.62,2.36.81,4.03,1.86,5,3.1.97,1.24,1.38,2.47,1.24,3.66-.02.18-.2.69-.53,1.51-.33.83-.68,1.68-1.05,2.55-.38.87-.76,2.12-1.18,3.75-.42,1.62-.74,3.32-.97,5.08-.19,1.75-.28,3.58-.28,5.49-.01,1.91-.01,3.23.03,3.98.04.75.13,1.83.25,3.24,3.84-5.48,7.83-10.87,11.98-16.17.76-1.15,1.21-2.04,1.35-2.68.13-.64.26-1.32.39-2.03.12-.71.35-1.28.69-1.71.4-.5.91-.82,1.54-.94.62-.13,1.49.08,2.58.62,1.98.99,2.43,2.03,1.4,3.06-.32.34-.76.66-1.34.96-.58.3-1.14.57-1.67.8-.53.23-1.14.6-1.82,1.1-.68.51-1.29,1.11-1.84,1.8-.02-.01-.04,0-.05.02-4.68,5.9-9.18,11.91-13.49,18.03-.4.83-1.07,1.34-2,1.54-.93.2-2.14-.02-3.66-.65-1.81-.74-3.07-1.66-3.8-2.81-.73-1.14-1.03-2.3-.89-3.48.04-.24.26-.91.64-2.01.39-1.11.81-2.64,1.26-4.6.45-1.96.78-4.12.96-6.47.1-1.72.11-3.42.03-5.11-3.34,5.65-6.53,11.38-9.56,17.16-.29.87-.88,1.47-1.76,1.79-.88.33-2.1.26-3.67-.16-1.89-.51-3.26-1.25-4.11-2.29-.85-1.04-1.29-2.14-1.3-3.33,0-.24.11-.94.35-2.09.24-1.15.47-2.72.68-4.72.21-2,.26-4.18.12-6.54-.15-2.39-.46-4.66-.94-6.79-.47-2.13-.96-3.83-1.41-5.1-.46-1.27-.71-2.03-.74-2.27Z"/>
    <path class="cls-1" d="M220.02,28.21c-.43-.21-.9-.23-1.42-.07-.52.16-1.08.52-1.68,1.07-.61.55-1.18,1.13-1.73,1.75-.55.62-1.19,1.47-1.93,2.55-.74,1.08-1.38,2.02-1.91,2.84-.54.82-1.22,1.9-2.05,3.23-.28.45-.58.93-.89,1.44,1.13-.55,2.27-.83,3.42-.84,0-.01.02-.02.02-.04,1.68-.08,3.11.07,4.27.43,1.16.36,2.01.79,2.55,1.28.73.63.65,1.56-.23,2.79-.5.7-.98,1.13-1.42,1.31-.45.17-.82.13-1.14-.13-.17-.12-.37-.48-.61-1.08-.24-.6-.57-1.21-.99-1.81-.42-.6-.95-1.01-1.57-1.21-.94-.19-1.91-.14-2.91.16-1,.3-1.93.79-2.8,1.47-1.73,2.91-2.97,5.27-3.74,7.08-.77,1.81-.88,2.96-.35,3.44.74.48,1.48.96,2.21,1.45.6.29,1.23.41,1.91.35.68-.05,1.36-.23,2.04-.53.68-.3,1.36-.61,2.02-.94.66-.33,1.37-.62,2.11-.87.74-.25,1.4-.36,1.98-.34,1.81.09,2.06,1.91.64,5.36-.57,1.28-1.11,2.13-1.6,2.53-.49.4-1.09.59-1.8.57-.51-.02-1.03-.13-1.56-.33-.53-.2-1.11-.51-1.73-.93-.63-.42-1.16-.81-1.62-1.15-.46-.35-1.09-.83-1.9-1.44-.81-.61-1.43-1.07-1.83-1.37-1.34-.89-2.7-1.76-4.07-2.6-1.02-.35-2-.8-2.95-1.35-1.75-1.02-2.83-2.07-3.24-3.22-.41-1.15-.35-2.23.21-3.24.11-.21.45-.62,1.04-1.24.59-.61,1.23-1.29,1.94-2.02.71-.73,1.55-1.76,2.54-3.07.99-1.32,1.9-2.71,2.71-4.2.83-1.51,1.52-3.04,2.08-4.59.55-1.55.93-2.84,1.12-3.84.19-1.01.36-1.94.51-2.78.15-.84.28-1.37.39-1.58,1.03-2.09,3.77-2.1,8.08.27.86.47,1.67.97,2.43,1.5,2,1.21,3.97,2.47,5.93,3.76.54.32,1.35.82,2.42,1.5,1.07.68,1.89,1.23,2.48,1.63.59.4,1.25.89,1.99,1.47.74.58,1.33,1.15,1.77,1.68.44.54.77,1.08.99,1.63.31.76.33,1.44.08,2.03-.26.59-.97,1.3-2.12,2.13-3.13,2.11-4.99,2.3-5.72.5-.23-.58-.36-1.27-.4-2.09-.04-.82-.03-1.61.02-2.37.05-.77.08-1.54.08-2.32,0-.78-.14-1.53-.43-2.25-.29-.72-.74-1.35-1.36-1.87-.75-.5-1.5-1-2.25-1.49Z"/>
    <path class="cls-1" d="M241.35,41.58c3,2.65,4.07,5.03,3.3,6.95,2.11-.32,3.91.25,5.33,1.69,0,.03.02.06.02.09,2.49,2.19,3.64,4.82,3.42,7.71-.23,2.9-1.67,5.43-4.22,7.65-3.28,2.88-6.27,3.84-8.95,3.05.81,2.09.38,3.8-1.22,5.11-.83.67-1.46,1.29-1.88,1.87-.42.58-.67,1.04-.74,1.38-.07.35-.2.74-.37,1.18-.17.44-.43.84-.79,1.2-.77.83-1.8,1.12-3.06.91-1.26-.21-2.6-1.11-4.05-2.68-1.45-1.56-2.24-2.93-2.34-4.17-.1-1.24.25-2.28,1.1-3.11.16-.13.46-.29.91-.48.44-.19.93-.38,1.47-.58.54-.2,1.25-.57,2.15-1.12.9-.55,1.81-1.21,2.74-2,.33-.3.44-.66.31-1.11-.12-.44-.46-.98-1.01-1.6-1.14-1-2.17-1.36-3.04-1.09-1.01.31-2.17,1.61-3.5,3.85-.78,1.55-1.24,2.4-1.39,2.55-.78.85-1.8,1.23-3.05,1.18-1.25-.05-2.63-.79-4.2-2.17-1.55-1.37-2.43-2.62-2.61-3.84-.19-1.21.08-2.26.82-3.15.15-.18.71-.64,1.68-1.36.97-.72,2.21-1.76,3.72-3.11,1.51-1.35,3-2.9,4.45-4.66,1.47-1.78,2.72-3.55,3.73-5.31,1.01-1.76,1.75-3.21,2.21-4.34.47-1.13.76-1.78.89-1.94.73-.94,1.77-1.38,3.15-1.28,1.38.1,3.06.98,5.01,2.69ZM247.81,50.51c-1.64-.93-3.82-.74-6.48.58-3.26,1.77-6.04,3.95-8.39,6.46-1.11,1.2-2.11,2.45-3.01,3.76.19-.07.35-.12.48-.16,1.34-.41,2.8.07,4.34,1.46.29.2.59.43.88.69.71.25,1.67.04,2.9-.61,1.23-.65,2.46-1.55,3.68-2.69,1.23-1.14,2.37-2.34,3.41-3.6,1.05-1.26,1.79-2.46,2.23-3.57.44-1.12.42-1.89-.04-2.31Z"/>
  </g>
  <path class="cls-1" d="M27.8,274.02c2.39,2.54,3.19,4.65,2.34,6.53,2.02-.4,3.63-.02,4.9,1.14,0,.03.06.04.07.06,2.23,1.73,3.27,3.89,3.25,6.63-.02,2.73-1.02,5.43-3.13,8.09-2.7,3.43-6.26,4.49-9.18,3.94,1.21,2.06,1.18,3.87-.18,5.45-.71.8-1.21,1.53-1.51,2.19-.29.66-.43,1.18-.41,1.56.02.38,0,.81-.04,1.31-.05.49-.2.95-.47,1.39-.57.99-1.59,1.43-3.09,1.28-1.5-.15-2.57-.65-4.7-2.49-2.13-1.84-3.38-3.52-3.75-4.96-.38-1.44-.13-2.59.7-3.43.16-.13.48-.28.95-.45.47-.17.99-.34,1.57-.52.57-.18,1.31-.55,2.22-1.1.91-.56,1.81-1.25,2.71-2.08.32-.31.39-.7.2-1.18-.18-.47-.59-1.04-1.23-1.73-1.3-1.11-2.41-1.58-3.34-1.37-1.07.24-2.28,1.49-3.57,3.81-.72,1.63-1.14,2.52-1.29,2.67-.79.85-1.91,1.14-3.38.83-1.47-.31-2.89-1.36-4.86-3.46-1.95-2.08-2.18-2.88-2.39-4.36-.21-1.48.15-2.59,1.05-3.32.18-.15.84-.46,1.99-.93,1.14-.47,2.6-1.22,4.36-2.26,1.76-1.04,3.49-2.32,5.21-3.83,1.74-1.53,3.25-3.09,4.53-4.67,1.28-1.58,2.26-2.88,2.94-3.9.67-1.02,1.09-1.59,1.25-1.73.89-.79,1.97-1.05,3.24-.81,1.28.24,1.89.58,3.05,1.7ZM33.01,282.18c-1.5-.71-3.55-.4-6.2.91-3.25,1.76-6.14,3.8-8.61,6.21-1.16,1.15-2.2,2.38-3.13,3.68.2-.05.37-.09.51-.12,1.43-.29,2.98.33,4.7,1.83.32.22.65.47.99.74.77.26,1.75.04,2.96-.67,1.2-.71,2.37-1.69,3.52-2.92,1.15-1.23,2.2-2.51,3.17-3.83.97-1.33,1.66-2.54,2.08-3.65.42-1.11.42-1.83,0-2.18Z"/>
  <path class="cls-1" d="M62.18,303.22c-.39-.14-.82-.1-1.29.12-.47.22-.98.63-1.54,1.22-.55.59-1.09,1.22-1.59,1.87-.51.66-1.1,1.54-1.79,2.65-.69,1.11-1.28,2.09-1.78,2.94-.5.84-1.13,1.96-1.9,3.33-.26.47-.54.96-.83,1.48,1.16-.57,2.34-.9,3.52-.97,0-.01.01-.03.02-.04,1.74-.18,3.2-.18,4.42.04,1.22.21,2.13.51,2.75.91.83.5.93,1.43.29,2.8-.37.78-.76,1.29-1.18,1.54-.42.24-.83.26-1.21.04-.2-.09-.48-.43-.85-1.01-.36-.58-.81-1.15-1.34-1.71-.53-.57-1.13-.93-1.81-1.08-1-.12-2.01-.01-3.04.32-1.03.34-1.99.85-2.87,1.55-1.59,3-2.69,5.44-3.29,7.33-.6,1.89-.51,3.12.25,3.67,1.01.54,2.02,1.07,3.04,1.6.8.31,1.6.42,2.39.33.79-.09,1.55-.32,2.26-.68.71-.37,1.4-.75,2.07-1.16.66-.41,1.38-.79,2.13-1.15.75-.36,1.45-.57,2.09-.64,2-.21,2.79,1.54,2.53,5.32-.15,1.42-.41,2.39-.81,2.9-.39.51-1.02.82-1.86.91-.6.07-1.26.04-1.98-.1-.71-.13-1.53-.39-2.44-.77-.91-.38-1.7-.74-2.37-1.08-.67-.33-1.6-.81-2.78-1.45-1.18-.64-2.06-1.13-2.64-1.46-1.89-.98-3.77-2-5.63-3.06-1.34-.48-2.65-1.11-3.92-1.88-2.34-1.41-3.8-2.83-4.37-4.18-.57-1.35-.51-2.5.15-3.45.13-.2.55-.56,1.24-1.08.69-.52,1.45-1.1,2.26-1.74.82-.64,1.79-1.57,2.9-2.79,1.12-1.22,2.13-2.56,3.04-3.98.93-1.45,1.72-2.94,2.39-4.46.66-1.52,1.14-2.77,1.43-3.75.29-.99.55-1.89.79-2.71.24-.82.43-1.33.56-1.53,1.28-1.99,3.7-1.79,7.39.29.74.41,1.44.84,2.11,1.29,1.74,1,3.51,1.97,5.28,2.89.49.22,1.23.56,2.21.99.98.44,1.75.77,2.3,1.01.55.24,1.17.54,1.88.9.71.35,1.29.72,1.74,1.09.45.38.82.79,1.1,1.23.39.62.54,1.24.43,1.87-.11.63-.58,1.51-1.44,2.64-2.35,2.92-4.11,3.57-5.14,2-.33-.5-.57-1.15-.73-1.93-.17-.78-.27-1.54-.33-2.29-.05-.75-.12-1.5-.2-2.25-.08-.75-.28-1.44-.6-2.08-.32-.64-.76-1.15-1.34-1.55-.7-.36-1.39-.72-2.08-1.09Z"/>
  <path class="cls-1" d="M96.86,326.72c-.04-.28.04-.72.23-1.32.18-.6.36-1.35.53-2.26.17-.91.31-1.79.43-2.67.12-.87.09-1.7-.07-2.48-.16-.78-.49-1.34-.98-1.7-.32-.13-.64-.24-.95-.31-.85-.2-1.77.34-2.77,1.6-1,1.27-1.95,2.94-2.82,5.03-.88,2.09-1.67,4.39-2.37,6.91-.7,2.52-1.2,4.93-1.48,7.22-.28,2.29-.27,4.31.06,6.05.33,1.74,1,2.81,1.98,3.19.18.04.29.07.34.08.35.08.73.14,1.13.17.72-.08,1.34-.44,1.87-1.07.54-.63.92-1.36,1.18-2.19.26-.83.49-1.7.71-2.61.22-.91.35-1.68.41-2.31.06-.63.16-1.06.31-1.3.47-.81,1.17-1.19,2.09-1.14.92.05,2.14.66,3.73,1.81,1.85,1.43,2.44,3,1.65,4.75-.46.98-1.1,1.85-1.93,2.6-.82.75-1.77,1.34-2.81,1.75-1.05.41-2.11.72-3.17.91-1.07.2-2.18.31-3.34.32-.76.05-1.49-.01-2.19-.18-.23-.05-.5-.13-.8-.23-1.98-.56-3.69-1.39-5.13-2.46-1.43-1.07-2.59-2.43-3.46-4.05-.87-1.63-1.29-3.59-1.28-5.88.01-2.29.5-4.83,1.43-7.62.88-2.65,1.99-4.91,3.31-6.78,1.32-1.87,2.73-3.3,4.22-4.29,1.5-1,3.03-1.63,4.63-1.93,1.59-.29,3.2-.25,4.84.14.45.11.91.29,1.37.54.87.47,1.68.97,2.44,1.52.76.55,1.49,1.19,2.19,1.94.7.75,1.29,1.61,1.76,2.59.47.98.75,2.02.85,3.12.18,1.89-.75,3.25-2.87,4-1.78.57-3.11.68-3.94.38-.84-.3-1.29-.92-1.35-1.85Z"/>
  <path class="cls-1" d="M143.87,334.25c.24,2.34.21,4.48-.12,6.42-.33,1.94-.88,3.58-1.65,4.92-.77,1.33-1.77,2.49-2.99,3.44-1.22.96-2.55,1.68-3.98,2.16-1.43.48-2.97.76-4.59.84-.31.03-.59.05-.83.05-.23,0-.51-.01-.83-.04-1.65-.05-3.2-.3-4.63-.75-1.43-.45-2.77-1.14-4-2.07-1.24-.93-2.26-2.06-3.08-3.38-.81-1.32-1.4-2.95-1.76-4.88-.36-1.93-.42-4.07-.23-6.41.23-2.75.82-5.2,1.74-7.35.92-2.15,2.03-3.86,3.34-5.15,1.31-1.28,2.72-2.26,4.25-2.94,1.53-.68,3.13-1.02,4.82-1.04,1.69-.02,3.3.29,4.86.94,1.56.64,3,1.59,4.33,2.85,1.33,1.26,2.48,2.94,3.44,5.08.96,2.13,1.61,4.57,1.9,7.32ZM129.7,350.53c.1,0,.25,0,.43,0,1.22-.19,2.26-1.11,3.09-2.74.83-1.63,1.38-3.6,1.67-5.88.28-2.29.34-4.74.19-7.37-.14-2.63-.47-5.04-.94-7.25-.48-2.21-1.14-4.04-1.97-5.48-.83-1.45-1.75-2.16-2.8-2.15-1,.01-1.86.75-2.62,2.21-.76,1.46-1.34,3.3-1.75,5.53-.4,2.22-.66,4.65-.73,7.28-.07,2.63.02,5.09.33,7.39.3,2.3.85,4.25,1.69,5.84.83,1.6,1.84,2.48,3.01,2.65.16,0,.29,0,.39,0Z"/>
  <path class="cls-1" d="M157,314.28c3.15-.68,5.26-.25,6.38,1.46.63-1.91,1.71-3.08,3.27-3.54.02,0,.05.02.07.02,2.49-.97,4.79-.75,7.05.71,2.25,1.46,4.01,3.74,5.17,6.92,1.53,4.09,1.41,7.25-.47,9.43,2.3.07,3.79,1.05,4.42,3.04.31,1.02.67,1.83,1.08,2.43.4.6.77.99,1.1,1.17.33.18.68.42,1.07.72.39.3.7.68.92,1.13.54,1,.4,2.1-.46,3.28-.86,1.18-2.57,2.23-5.12,3.06-2.55.83-4.53.99-5.89.54-1.36-.44-2.18-1.25-2.47-2.41-.03-.21,0-.55.09-1.04.09-.49.2-1.02.32-1.6.13-.58.18-1.4.16-2.46-.02-1.06-.16-2.19-.41-3.39-.1-.43-.39-.7-.86-.79-.47-.1-1.14-.05-2,.13-1.52.51-2.43,1.2-2.7,2.1-.32,1.03.13,2.71,1.41,5.03.98,1.47,1.51,2.3,1.56,2.5.32,1.11.02,2.22-.92,3.3-.95,1.08-2.73,1.94-5.33,2.5-2.58.55-4.53.5-5.81-.1-1.28-.6-1.99-1.48-2.16-2.63-.04-.23.02-.96.16-2.18.15-1.22.21-2.84.2-4.88-.02-2.04-.25-4.18-.66-6.43-.42-2.28-.98-4.38-1.65-6.29-.67-1.92-1.25-3.43-1.76-4.53-.51-1.1-.77-1.76-.81-1.96-.22-1.17.07-2.23.84-3.18.77-.96,2.18-1.62,4.23-2.07ZM166.09,314.18c-1.3.89-2.02,2.79-2.21,5.72-.1,3.68.19,7.2.99,10.55.39,1.59.89,3.12,1.51,4.59.05-.2.1-.36.14-.49.44-1.37,1.68-2.35,3.72-3.01.33-.15.69-.3,1.08-.44.58-.51.87-1.46.87-2.85,0-1.39-.25-2.9-.7-4.52-.45-1.62-1-3.18-1.62-4.71-.62-1.52-1.29-2.75-2-3.69-.71-.94-1.29-1.32-1.78-1.16Z"/>
  <path class="cls-1" d="M200.56,297.65c2.55-1.33,5.31-1.34,8.44-.04,3.12,1.31,6.3,4.06,9.43,8.41,3.07,4.27,4.64,8.14,4.53,11.65-.1,3.51-1.57,6.4-4.34,8.51-.3.29-.6.53-.9.71-1.45.89-3.23,1.01-5.27.33.3,2.05-1.35,4.13-4.98,6.03-2.41,1.25-4.36,1.74-5.78,1.53-1.43-.21-2.37-.86-2.83-1.92-.11-.24-.21-.79-.3-1.66-.09-.86-.2-1.81-.32-2.85-.13-1.04-.42-2.37-.89-3.97-.47-1.61-1.08-3.18-1.84-4.73-.74-1.53-1.59-2.98-2.54-4.37-.95-1.39-1.77-2.46-2.46-3.23-.69-.76-1.32-1.47-1.89-2.12-.57-.65-.91-1.09-1.01-1.3-.51-1.04-.49-2.14.04-3.29.52-1.16,1.75-2.2,3.67-3.2,2.87-1.49,5.02-1.63,6.56-.29.24-1.92.93-3.23,2.11-3.95.17-.1.36-.18.57-.25ZM216.9,325.56c.56-.58.17-2.36-1.2-5.32-1.36-2.95-3.06-6.01-5.08-9.18-2.02-3.17-4.04-5.99-6.03-8.46-1.99-2.47-3.27-3.6-3.88-3.37-1.18.76-1.72,2.28-1.67,4.62.03.09.13.46.31,1.11.18.65.32,1.16.42,1.53.1.37.3.95.58,1.75.28.8.55,1.53.81,2.18.26.66.6,1.43,1.03,2.34.43.9.88,1.8,1.38,2.68.61,1.09,1.22,2.1,1.84,3.03.62.93,1.26,1.78,1.91,2.56.66.77,1.17,1.36,1.55,1.76.38.4,1.2,1.23,2.49,2.48,2.18,1.11,4.05,1.2,5.54.29Z"/>
  <path class="cls-1" d="M224.92,278.26c.39-.38.8-.73,1.25-1.06.81-.66,1.65-1.23,2.5-1.72.85-.49,1.77-.91,2.76-1.28,1-.37,2.04-.55,3.13-.57,1.1-.01,2.16.18,3.19.58,1.75.64,2.52,2.14,2.2,4.54-.33,2-.86,3.34-1.52,4.01-.67.68-1.45.85-2.32.52-.16-.05-.64-.43-1.45-1.13-.81-.7-1.63-1.4-2.46-2.08-.83-.68-1.75-1.21-2.77-1.59-1.01-.38-1.84-.37-2.5.04-.33.25-.64.52-.94.81-.75.74-1.23,1.63-1.47,2.67-.24,1.05-.2,2.03.11,2.95.31.92.85,1.58,1.62,1.97.34.17.76.28,1.25.33.49.05,1.12.03,1.9-.07.78-.1,1.38-.2,1.8-.27.42-.07,1.16-.24,2.21-.52,1.06-.28,1.69-.45,1.9-.49,1.73-.45,3.17-.83,4.3-1.1,1.13-.27,2.36-.51,3.67-.71,1.32-.2,2.45-.25,3.39-.12.94.12,1.89.4,2.85.84.96.44,1.82,1.07,2.59,1.91,2.02,2.2,2.82,4.59,2.32,7.15-.5,2.55-2.29,5.5-5.44,8.62-.02.02-.04.04-.06.06-.36.36-.75.7-1.18,1.03-4.39,4.13-8.05,5.71-10.7,5.05-.6-.16-1.13-.4-1.61-.74-.48-.34-.88-.84-1.22-1.51-.33-.67-.49-1.43-.45-2.28.06-1.34.3-2.47.74-3.4.44-.92.93-1.54,1.5-1.86.57-.32,1.13-.43,1.69-.34.2.02.71.31,1.54.88.83.56,1.7,1.13,2.6,1.69.9.56,1.93.92,3.09,1.05,1.17.14,2.18-.12,3.04-.76.2-.24.41-.47.62-.68,1.07-1.46,1.57-2.97,1.49-4.51-.08-1.54-.77-2.34-2.02-2.43-.37-.05-.99.07-1.88.32-.88.26-2.05.61-3.5,1.05-1.45.44-2.43.71-2.95.84-1.23.32-2.19.54-2.9.67-.71.14-1.59.28-2.65.41-1.05.14-1.91.18-2.58.13-.66-.04-1.44-.14-2.32-.3-.88-.16-1.65-.42-2.31-.77-.66-.35-1.35-.82-2.07-1.4-.72-.58-1.42-1.26-2.09-2.06-3.92-4.74-3.08-9.28,2.08-14.36,0,0,.02-.02.02-.02Z"/>
</svg>