<?xml version="1.0" standalone="no"?>
<!DOCTYPE svg PUBLIC "-//W3C//DTD SVG 20010904//EN"
 "http://www.w3.org/TR/2001/REC-SVG-20010904/DTD/svg10.dtd">
<svg version="1.0" xmlns="http://www.w3.org/2000/svg"
 width="1067.000000pt" height="1362.000000pt" viewBox="0 0 1067.000000 1362.000000"
 preserveAspectRatio="xMidYMid meet">

<g transform="translate(0.000000,1362.000000) scale(0.100000,-0.100000)"
fill="#000000" stroke="none">
<path d="M5025 13613 c-129 -5 -409 -32 -555 -54 -2279 -345 -4067 -2132
-4409 -4409 -25 -168 -48 -416 -56 -622 l-7 -158 2626 0 2626 0 0 2625 0 2625
-72 -2 c-40 -1 -109 -3 -153 -5z"/>
<path d="M7830 13609 c-658 -54 -1268 -354 -1724 -849 -352 -382 -584 -876
-662 -1415 -25 -167 -25 -533 0 -700 46 -316 125 -566 266 -844 255 -503 665
-907 1175 -1157 329 -161 619 -239 992 -266 643 -46 1305 165 1818 579 121 97
326 306 417 423 155 200 310 477 393 704 215 583 215 1239 0 1822 -85 231
-250 524 -405 719 -87 109 -265 290 -380 387 -203 171 -513 351 -764 443 -354
130 -749 184 -1126 154z"/>
<path d="M2380 8189 c-139 -13 -348 -53 -485 -93 -1004 -293 -1728 -1140
-1871 -2186 -23 -169 -23 -499 0 -669 82 -608 350 -1136 790 -1558 406 -391
913 -633 1486 -709 151 -20 470 -22 615 -5 513 63 972 255 1360 568 121 97
326 306 417 423 380 490 578 1099 554 1705 -12 316 -66 579 -177 865 -424
1089 -1520 1766 -2689 1659z"/>
<path d="M5420 5574 l0 -2625 103 5 c56 3 154 8 217 11 405 20 912 116 1317
250 640 212 1214 533 1748 976 137 114 521 499 636 639 275 332 479 644 664
1011 348 690 526 1388 560 2202 l7 157 -2626 0 -2626 0 0 -2626z"/>
<path d="M5420 1288 l0 -331 -30 41 c-77 107 -219 157 -375 132 -176 -28 -297
-137 -361 -327 -36 -106 -45 -292 -19 -409 35 -163 121 -286 239 -344 192 -95
441 -39 534 118 l27 47 5 -95 5 -95 93 -3 92 -3 0 801 0 800 -105 0 -105 0 0
-332z m-164 -358 c54 -26 99 -77 133 -150 25 -52 26 -64 26 -210 l0 -155 -33
-67 c-59 -120 -159 -177 -284 -164 -167 17 -262 155 -261 380 1 204 67 332
195 378 66 23 161 18 224 -12z"/>
<path d="M9480 820 l0 -800 105 0 105 0 0 183 0 184 103 95 102 95 145 -278
145 -279 119 0 c91 0 117 3 113 12 -3 7 -88 166 -190 353 l-186 340 197 198
197 197 -134 0 -134 0 -229 -235 c-127 -129 -234 -235 -239 -235 -5 0 -9 202
-9 485 l0 485 -105 0 -105 0 0 -800z"/>
<path d="M5990 1323 c0 -169 -26 -203 -157 -203 l-73 0 0 -90 0 -90 115 0 115
0 0 -325 c0 -331 6 -397 40 -465 33 -64 105 -119 178 -135 42 -9 160 -9 212 0
l40 7 0 82 0 83 -77 -1 c-97 -1 -137 18 -164 77 -17 38 -19 69 -19 360 l0 317
130 0 130 0 0 90 0 90 -130 0 -130 0 0 155 0 155 -105 0 -105 0 0 -107z"/>
<path d="M575 1126 c-79 -20 -120 -41 -170 -87 -62 -57 -87 -109 -93 -191 -6
-91 11 -148 63 -206 57 -63 117 -91 317 -150 91 -27 178 -57 193 -66 36 -24
58 -79 50 -127 -15 -86 -84 -128 -210 -129 -130 0 -207 48 -229 143 l-6 27
-105 0 -104 0 6 -38 c19 -127 113 -229 250 -272 235 -73 499 3 579 167 25 50
29 70 29 143 0 76 -3 91 -30 139 -52 94 -112 128 -335 186 -161 42 -223 67
-245 98 -19 27 -19 100 0 136 22 43 91 72 168 73 111 1 183 -47 202 -134 l7
-28 99 0 99 0 0 43 c0 124 -127 246 -290 277 -70 13 -183 11 -245 -4z"/>
<path d="M1623 1125 c-161 -44 -282 -166 -339 -342 -24 -75 -30 -301 -10 -387
35 -150 130 -279 247 -339 78 -39 188 -60 276 -53 225 20 384 161 438 388 19
83 19 274 0 357 -46 195 -187 343 -363 380 -71 15 -185 13 -249 -4z m265 -201
c99 -61 146 -173 147 -349 0 -186 -56 -309 -169 -367 -57 -30 -165 -30 -222
-1 -112 59 -173 186 -174 361 0 190 74 332 197 378 62 23 164 13 221 -22z"/>
<path d="M3979 1126 c-72 -21 -148 -66 -190 -115 -21 -24 -39 -48 -39 -52 0
-5 -4 -9 -9 -9 -5 0 -13 37 -17 83 l-9 82 -98 3 -97 3 2 -548 3 -548 105 0
105 0 5 365 c5 359 5 366 29 410 52 100 126 150 231 158 87 6 146 -11 191 -57
65 -65 69 -94 69 -513 l0 -368 105 0 105 0 0 390 c0 411 -4 456 -47 547 -30
64 -107 135 -171 158 -62 22 -213 28 -273 11z"/>
<path d="M7645 1130 c-170 -36 -289 -136 -330 -274 -24 -80 -28 -77 87 -74
l102 3 8 33 c5 19 29 53 53 77 55 55 127 79 224 73 128 -8 186 -59 186 -165 0
-98 -5 -100 -226 -124 -203 -21 -259 -35 -336 -86 -96 -63 -142 -170 -129
-302 11 -125 81 -218 195 -263 111 -43 291 -26 391 37 39 25 110 99 110 116 0
25 18 -4 24 -39 15 -100 128 -153 265 -126 l31 7 0 78 0 78 -30 -1 c-17 -1
-39 7 -49 16 -18 16 -19 39 -23 334 -5 347 -9 375 -68 464 -64 96 -162 139
-330 144 -63 2 -133 -1 -155 -6z m342 -656 c-8 -91 -31 -148 -86 -207 -53 -57
-124 -88 -205 -89 -80 -2 -128 15 -165 57 -75 86 -37 228 72 270 35 13 242 38
361 44 l29 1 -6 -76z"/>
<path d="M8733 1126 c-84 -21 -159 -65 -223 -132 -110 -114 -157 -266 -147
-469 14 -295 161 -479 411 -516 259 -39 493 107 544 339 l10 42 -109 0 c-96 0
-110 -2 -115 -18 -28 -95 -99 -163 -189 -182 -158 -33 -285 61 -325 241 -18
83 -9 280 17 345 27 70 67 120 122 152 40 23 57 27 126 27 63 0 89 -5 121 -22
53 -28 97 -79 119 -137 l18 -46 107 0 108 0 -12 53 c-39 165 -167 291 -334
326 -68 14 -183 13 -249 -3z"/>
<path d="M7040 1116 c-81 -21 -170 -93 -170 -137 -1 -37 -19 21 -26 78 l-6 63
-94 0 -94 0 0 -550 0 -550 105 0 105 0 0 318 c0 327 7 407 40 473 42 81 135
129 252 129 l58 0 0 89 c0 84 -1 89 -22 95 -35 9 -98 6 -148 -8z"/>
<path d="M2390 763 c0 -197 5 -391 10 -432 23 -177 126 -292 289 -321 158 -28
330 35 401 147 l27 43 7 -38 c3 -20 6 -54 6 -74 0 -67 2 -68 106 -68 l94 0 0
550 0 550 -104 0 -104 0 -4 -347 c-5 -386 -9 -413 -71 -495 -41 -54 -97 -85
-166 -94 -107 -13 -201 28 -241 106 -32 63 -40 156 -40 503 l0 327 -105 0
-105 0 0 -357z"/>
</g>
</svg>
