<?xml version="1.0" encoding="UTF-8" standalone="no"?>

<svg
   version="1.1"
   id="svg2"
   xml:space="preserve"
   width="600"
   height="600"
   viewBox="0 0 600 600"
   sodipodi:docname="logo-icon.svg"
   inkscape:version="1.3 (0e150ed6c4, 2023-07-21)"
   inkscape:export-filename="logo-icon.png"
   inkscape:export-xdpi="109.39"
   inkscape:export-ydpi="109.39"
   xmlns:inkscape="http://www.inkscape.org/namespaces/inkscape"
   xmlns:sodipodi="http://sodipodi.sourceforge.net/DTD/sodipodi-0.dtd"
   xmlns="http://www.w3.org/2000/svg"
   xmlns:svg="http://www.w3.org/2000/svg"
   xmlns:rdf="http://www.w3.org/1999/02/22-rdf-syntax-ns#"
   xmlns:cc="http://creativecommons.org/ns#"
   xmlns:dc="http://purl.org/dc/elements/1.1/">

	<g
     id="g10"
     inkscape:groupmode="layer"
     inkscape:label="logo-icon"
     transform="matrix(1.3333333,0,0,-1.3333333,0,400)">
		<path fill="#40a0ff"
       d="m 407.11538,92.415442 c 1.10227,7.515958 1.52102,14.875218 1.67502,26.114038 1.19142,86.68747 -74.12216,153.3477 -158.09988,153.82589 -20.55137,0.13508 -30.8338,0.13508 -51.39057,0 C 115.2925,271.87718 40.219377,206.04095 41.208177,118.52948 41.327049,107.5203 41.69177,99.769302 42.731901,92.204714 31.949662,76.446057 26.408602,55.45973 28.756325,33.095568 l 0.69162,-6.643329 c 4.619801,-43.979972 37.933705,-76.540118 74.395015,-72.706493 l 1.93167,0.202623 c 24.8902,-46.678908 68.93771,-76.207819 119.19089,-76.396929 v -0.008 h 0.11617 c 4.08217,0 7.38628,3.30411 7.38628,7.39709 v 26.297748 c 0,4.071369 -3.30411,7.370069 -7.37007,7.388981 v 0.05133 c -51.07178,0 -97.10499,62.451073 -97.10499,125.291182 0,62.107969 46.03321,125.604569 96.89696,125.604569 v -0.008 h 0.10536 c 4.08218,0 7.38898,3.3041 7.38898,7.39709 v 25.97355 c 0,4.04435 -3.25817,7.33224 -7.28631,7.38898 v 0.0675 C 170.28165,210.2447 122.85169,175.19905 99.574373,121.05821 l -13.175891,-1.38864 c -0.686216,-0.0702 -1.337311,-0.23774 -2.015422,-0.3377 -3.039343,65.68223 57.47466,113.08247 122.31668,113.44179 16.57995,0.10266 24.86858,0.10266 41.44853,0 64.76638,-0.35932 120.58493,-47.90005 118.49657,-113.612 -1.01312,0.1648 -2.01002,0.39984 -3.04205,0.50791 l -21.1052,2.22345 v -0.0216 c -0.0675,0.0135 -0.13508,0.0324 -0.19992,0.0486 -4.58198,0.4809 -8.69657,-2.83672 -9.17476,-7.41869 L 317.43449,-34.856041 c -0.48089,-4.576576 2.83402,-8.685768 7.4187,-9.155853 0.0756,-0.01081 0.13508,0.0081 0.21073,0 v -0.02972 l 21.09439,-2.212642 c 36.45861,-3.833625 69.76441,28.726521 74.38151,72.706493 l 0.70243,6.643329 c 2.36393,22.469526 -3.25007,43.539604 -14.12687,59.319874"
       style="fill:#40a0ff;fill-opacity:1;fill-rule:evenodd;stroke:none;stroke-width:2.70164"
       id="path22"
       inkscape:connector-curvature="0"
       clip-path="url(#clipPath3)" />
	</g>
</svg>
